<svg width="317" height="168" viewBox="0 0 317 168" fill="none" xmlns="http://www.w3.org/2000/svg">
<path d="M158.5 40C169.546 40 178.5 31.0457 178.5 20C178.5 8.9543 169.546 0 158.5 0C147.454 0 138.5 8.9543 138.5 20C138.5 31.0457 147.454 40 158.5 40Z" fill="#F6FFED"/>
<path d="M159.013 12H157.986V19.7H156.445V20.732H157.986V28.432H159.013V25.355H160.554V24.328H159.013V16.109H160.554V15.082H159.013V12Z" fill="#52C41A"/>
<path d="M165.5 13.219H162.5C161.948 13.219 161.5 13.6667 161.5 14.219V17.219C161.5 17.7713 161.948 18.219 162.5 18.219H165.5C166.052 18.219 166.5 17.7713 166.5 17.219V14.219C166.5 13.6667 166.052 13.219 165.5 13.219Z" fill="#52C41A"/>
<path d="M165.5 22.219H162.5C161.948 22.219 161.5 22.6667 161.5 23.219V26.219C161.5 26.7713 161.948 27.219 162.5 27.219H165.5C166.052 27.219 166.5 26.7713 166.5 26.219V23.219C166.5 22.6667 166.052 22.219 165.5 22.219Z" fill="#52C41A"/>
<path d="M154.5 17.219H151.5C150.948 17.219 150.5 17.6667 150.5 18.219V22.219C150.5 22.7713 150.948 23.219 151.5 23.219H154.5C155.052 23.219 155.5 22.7713 155.5 22.219V18.219C155.5 17.6667 155.052 17.219 154.5 17.219Z" fill="#52C41A"/>
<path d="M94.184 73H98.12C101.816 73 104.44 70.712 104.44 67.496C104.44 64.28 101.816 62.008 98.12 62.008H94.184V73ZM96.536 70.856V64.152H98.424C100.52 64.152 102.008 65.544 102.008 67.496C102.008 69.464 100.52 70.856 98.424 70.856H96.536ZM109.892 64.536C108.74 64.536 107.604 64.856 106.436 65.448L107.22 67C107.876 66.664 108.596 66.408 109.364 66.408C110.724 66.408 111.268 67.176 111.268 68.056V68.216C110.564 67.944 109.828 67.8 109.156 67.8C107.236 67.8 105.716 68.92 105.716 70.552C105.716 72.136 107.076 73.192 108.836 73.192C109.732 73.192 110.676 72.84 111.268 72.168V73H113.524V68.056C113.524 65.896 112.052 64.536 109.892 64.536ZM109.364 71.576C108.564 71.576 107.972 71.16 107.972 70.488C107.972 69.816 108.644 69.32 109.492 69.32C110.132 69.32 110.74 69.432 111.268 69.624V70.392C111.108 71.16 110.26 71.576 109.364 71.576ZM119.845 70.952C119.685 71.112 119.365 71.224 119.045 71.224C118.613 71.224 118.261 70.84 118.261 70.296V66.616H120.053V64.728H118.261V62.456H116.021V64.728H114.885V66.616H116.021V70.664C116.021 72.152 117.045 73.192 118.501 73.192C119.173 73.192 119.925 72.904 120.405 72.472L119.845 70.952ZM125.564 64.536C124.412 64.536 123.276 64.856 122.108 65.448L122.892 67C123.548 66.664 124.268 66.408 125.036 66.408C126.396 66.408 126.94 67.176 126.94 68.056V68.216C126.236 67.944 125.5 67.8 124.828 67.8C122.908 67.8 121.388 68.92 121.388 70.552C121.388 72.136 122.748 73.192 124.508 73.192C125.404 73.192 126.348 72.84 126.94 72.168V73H129.196V68.056C129.196 65.896 127.724 64.536 125.564 64.536ZM125.036 71.576C124.236 71.576 123.644 71.16 123.644 70.488C123.644 69.816 124.316 69.32 125.164 69.32C125.804 69.32 126.412 69.432 126.94 69.624V70.392C126.78 71.16 125.932 71.576 125.036 71.576ZM136.801 63.592C137.489 63.592 138.049 63.016 138.049 62.312C138.049 61.656 137.489 61.064 136.801 61.064C136.081 61.064 135.521 61.656 135.521 62.312C135.521 63.016 136.081 63.592 136.801 63.592ZM135.617 73H137.953V64.728H135.617V73ZM144.777 64.536C143.705 64.536 142.777 65.016 142.281 65.768V64.728H139.945V73H142.281V68.056L142.297 68.104C142.297 67.208 143.049 66.504 144.025 66.504C144.953 66.504 145.593 67.208 145.593 68.232V73H147.849V67.736C147.849 65.864 146.569 64.536 144.777 64.536ZM156.626 66.264V64.728H154.29V73H156.626V69.048C156.626 67.496 157.73 66.504 159.458 66.504V64.536C158.194 64.536 157.17 65.192 156.626 66.264ZM164.709 71.128C163.733 71.128 163.013 70.52 162.741 69.624H168.709C168.709 66.504 167.189 64.536 164.597 64.536C162.181 64.536 160.341 66.344 160.341 68.84C160.341 71.384 162.261 73.192 164.725 73.192C165.941 73.192 167.365 72.68 168.101 71.912L166.613 70.392C166.165 70.824 165.365 71.128 164.709 71.128ZM164.693 66.6C165.637 66.6 166.245 67.128 166.469 67.944H162.773C163.077 67.112 163.813 66.6 164.693 66.6ZM173.986 64.536C172.834 64.536 171.698 64.856 170.53 65.448L171.314 67C171.97 66.664 172.69 66.408 173.458 66.408C174.818 66.408 175.362 67.176 175.362 68.056V68.216C174.658 67.944 173.922 67.8 173.25 67.8C171.33 67.8 169.81 68.92 169.81 70.552C169.81 72.136 171.17 73.192 172.93 73.192C173.826 73.192 174.77 72.84 175.362 72.168V73H177.618V68.056C177.618 65.896 176.146 64.536 173.986 64.536ZM173.458 71.576C172.658 71.576 172.066 71.16 172.066 70.488C172.066 69.816 172.738 69.32 173.586 69.32C174.226 69.32 174.834 69.432 175.362 69.624V70.392C175.202 71.16 174.354 71.576 173.458 71.576ZM179.587 73H181.923V61.816H179.587V73ZM183.658 69.592H188.042V67.608H183.658V69.592ZM194.142 70.952C193.982 71.112 193.662 71.224 193.342 71.224C192.91 71.224 192.558 70.84 192.558 70.296V66.616H194.35V64.728H192.558V62.456H190.318V64.728H189.182V66.616H190.318V70.664C190.318 72.152 191.342 73.192 192.798 73.192C193.47 73.192 194.222 72.904 194.702 72.472L194.142 70.952ZM197.333 63.592C198.021 63.592 198.581 63.016 198.581 62.312C198.581 61.656 198.021 61.064 197.333 61.064C196.613 61.064 196.053 61.656 196.053 62.312C196.053 63.016 196.613 63.592 197.333 63.592ZM196.149 73H198.485V64.728H196.149V73ZM210.364 64.536C209.132 64.536 208.108 65.128 207.676 66.04C207.164 65.112 206.188 64.536 205.052 64.536C204.028 64.536 203.212 65.032 202.812 65.816V64.728H200.476V73H202.812V68.008C202.812 67.128 203.468 66.504 204.412 66.504C205.26 66.504 205.868 67.176 205.868 68.136V73.016H208.108V68.008C208.108 67.128 208.78 66.504 209.708 66.504C210.572 66.504 211.18 67.176 211.18 68.136V73.016H213.42V67.736C213.42 65.864 212.092 64.536 210.364 64.536ZM219.287 71.128C218.311 71.128 217.591 70.52 217.319 69.624H223.287C223.287 66.504 221.767 64.536 219.175 64.536C216.759 64.536 214.919 66.344 214.919 68.84C214.919 71.384 216.839 73.192 219.303 73.192C220.519 73.192 221.943 72.68 222.679 71.912L221.191 70.392C220.743 70.824 219.943 71.128 219.287 71.128ZM219.271 66.6C220.215 66.6 220.823 67.128 221.047 67.944H217.351C217.655 67.112 218.391 66.6 219.271 66.6Z" fill="#160637"/>
<path d="M19.5347 113.192C21.1027 113.192 22.5427 112.52 23.5827 111.464L22.4467 110.376C21.7107 111.176 20.6707 111.704 19.5347 111.704C17.3427 111.704 15.4867 109.784 15.4867 107.496C15.4867 105.224 17.3427 103.304 19.5347 103.304C20.6707 103.304 21.7107 103.832 22.4467 104.632L23.5827 103.544C22.5427 102.472 21.1027 101.816 19.5347 101.816C16.4467 101.816 13.8227 104.408 13.8227 107.496C13.8227 110.584 16.4467 113.192 19.5347 113.192ZM29.0798 113.192C31.4318 113.192 33.4158 111.208 33.4158 108.856C33.4158 106.504 31.4318 104.536 29.0798 104.536C26.7118 104.536 24.7118 106.504 24.7118 108.856C24.7118 111.208 26.7118 113.192 29.0798 113.192ZM29.0798 111.816C27.5598 111.816 26.2958 110.472 26.2958 108.856C26.2958 107.256 27.5598 105.912 29.0798 105.912C30.5678 105.912 31.8318 107.256 31.8318 108.856C31.8318 110.472 30.5678 111.816 29.0798 111.816ZM35.2692 113H36.8372V101.816H35.2692V113ZM39.1442 113H40.7122V101.816H39.1442V113ZM46.8112 111.784C45.3872 111.784 44.3792 110.792 44.1712 109.416H50.6832C50.6832 106.456 49.2272 104.536 46.6992 104.536C44.4112 104.536 42.5712 106.36 42.5712 108.84C42.5712 111.384 44.5232 113.192 46.8272 113.192C47.9952 113.192 49.4352 112.696 50.1712 111.912L49.1792 110.888C48.6832 111.4 47.6752 111.784 46.8112 111.784ZM46.7632 105.944C48.1872 105.944 48.9712 106.872 49.1472 108.152H44.1872C44.4432 106.808 45.4832 105.944 46.7632 105.944ZM56.4232 113.192C57.6552 113.192 58.7272 112.68 59.5272 111.864L58.4552 110.888C57.9432 111.464 57.2072 111.816 56.4392 111.816C54.9192 111.816 53.6712 110.472 53.6712 108.856C53.6712 107.256 54.9192 105.912 56.4232 105.912C57.1912 105.912 57.9112 106.248 58.4072 106.808L59.4792 105.816C58.6952 105.032 57.6232 104.536 56.4392 104.536C54.0712 104.536 52.0712 106.504 52.0712 108.856C52.0712 111.208 54.0712 113.192 56.4232 113.192ZM65.0943 111.512C64.9183 111.688 64.5983 111.816 64.2463 111.816C63.7823 111.816 63.3983 111.4 63.3983 110.824V106.072H65.3503V104.728H63.3983V102.456H61.8463V104.728H60.5983V106.072H61.8463V110.936C61.8463 112.264 62.7423 113.192 64.0223 113.192C64.6143 113.192 65.2223 112.968 65.6703 112.6L65.0943 111.512ZM78.2309 101.816V106.152C77.5909 105.144 76.5669 104.536 75.2869 104.536C73.1109 104.536 71.4789 106.328 71.4789 108.856C71.4789 111.4 73.1109 113.192 75.2869 113.192C76.5669 113.192 77.5909 112.584 78.2309 111.56V113H79.7989V101.816H78.2309ZM75.6709 111.816C74.1509 111.816 73.0789 110.584 73.0789 108.856C73.0789 107.128 74.1509 105.912 75.6709 105.912C77.1589 105.912 78.2309 107.128 78.2309 108.856C78.2309 110.584 77.1589 111.816 75.6709 111.816ZM85.6474 104.536C84.7354 104.536 83.6954 104.776 82.5114 105.368L83.0874 106.536C83.8074 106.168 84.6074 105.848 85.4234 105.848C87.0714 105.848 87.5514 106.952 87.5514 107.992V108.248C86.7514 107.976 85.8714 107.8 85.0554 107.8C83.2314 107.8 81.7434 108.904 81.7434 110.552C81.7434 112.168 83.0394 113.192 84.7994 113.192C85.8074 113.192 86.9434 112.728 87.5514 111.864V113H89.1034V107.992C89.1034 105.944 87.8714 104.536 85.6474 104.536ZM85.1034 111.944C84.0634 111.944 83.2634 111.4 83.2634 110.504C83.2634 109.608 84.1914 108.984 85.2954 108.984C86.1114 108.984 86.8794 109.096 87.5514 109.304V110.408C87.2794 111.432 86.1274 111.944 85.1034 111.944ZM95.2662 111.512C95.0902 111.688 94.7702 111.816 94.4182 111.816C93.9542 111.816 93.5702 111.4 93.5702 110.824V106.072H95.5222V104.728H93.5702V102.456H92.0182V104.728H90.7702V106.072H92.0182V110.936C92.0182 112.264 92.9142 113.192 94.1942 113.192C94.7862 113.192 95.3942 112.968 95.8422 112.6L95.2662 111.512ZM100.929 104.536C100.017 104.536 98.9767 104.776 97.7927 105.368L98.3687 106.536C99.0887 106.168 99.8887 105.848 100.705 105.848C102.353 105.848 102.833 106.952 102.833 107.992V108.248C102.033 107.976 101.153 107.8 100.337 107.8C98.5127 107.8 97.0247 108.904 97.0247 110.552C97.0247 112.168 98.3207 113.192 100.081 113.192C101.089 113.192 102.225 112.728 102.833 111.864V113H104.385V107.992C104.385 105.944 103.153 104.536 100.929 104.536ZM100.385 111.944C99.3447 111.944 98.5447 111.4 98.5447 110.504C98.5447 109.608 99.4727 108.984 100.577 108.984C101.393 108.984 102.161 109.096 102.833 109.304V110.408C102.561 111.432 101.409 111.944 100.385 111.944ZM112.038 103.352C112.55 103.352 112.982 102.904 112.982 102.392C112.982 101.896 112.55 101.448 112.038 101.448C111.494 101.448 111.078 101.896 111.078 102.392C111.078 102.904 111.494 103.352 112.038 103.352ZM111.238 113H112.822V104.728H111.238V113ZM119.321 104.536C118.201 104.536 117.193 105.112 116.697 105.928V104.728H115.113V113H116.697V107.64C116.825 106.664 117.817 105.912 118.969 105.912C120.089 105.912 120.873 106.776 120.873 108.008V113H122.425V107.736C122.425 105.864 121.145 104.536 119.321 104.536ZM130.933 106.312V104.728H129.349V113H130.933V108.296C131.077 106.856 132.293 105.912 134.005 105.912V104.536C132.581 104.536 131.461 105.224 130.933 106.312ZM139.342 111.784C137.918 111.784 136.91 110.792 136.702 109.416H143.214C143.214 106.456 141.758 104.536 139.23 104.536C136.942 104.536 135.102 106.36 135.102 108.84C135.102 111.384 137.054 113.192 139.358 113.192C140.526 113.192 141.966 112.696 142.702 111.912L141.71 110.888C141.214 111.4 140.206 111.784 139.342 111.784ZM139.294 105.944C140.718 105.944 141.502 106.872 141.678 108.152H136.718C136.974 106.808 138.014 105.944 139.294 105.944ZM148.522 104.536C147.61 104.536 146.57 104.776 145.386 105.368L145.962 106.536C146.682 106.168 147.482 105.848 148.298 105.848C149.946 105.848 150.426 106.952 150.426 107.992V108.248C149.626 107.976 148.746 107.8 147.93 107.8C146.106 107.8 144.618 108.904 144.618 110.552C144.618 112.168 145.914 113.192 147.674 113.192C148.682 113.192 149.818 112.728 150.426 111.864V113H151.978V107.992C151.978 105.944 150.746 104.536 148.522 104.536ZM147.978 111.944C146.938 111.944 146.138 111.4 146.138 110.504C146.138 109.608 147.066 108.984 148.17 108.984C148.986 108.984 149.754 109.096 150.426 109.304V110.408C150.154 111.432 149.002 111.944 147.978 111.944ZM154.269 113H155.837V101.816H154.269V113ZM157.824 109.352H162.048V107.912H157.824V109.352ZM167.922 111.512C167.746 111.688 167.426 111.816 167.074 111.816C166.61 111.816 166.226 111.4 166.226 110.824V106.072H168.178V104.728H166.226V102.456H164.674V104.728H163.426V106.072H164.674V110.936C164.674 112.264 165.57 113.192 166.85 113.192C167.442 113.192 168.05 112.968 168.498 112.6L167.922 111.512ZM170.897 103.352C171.409 103.352 171.841 102.904 171.841 102.392C171.841 101.896 171.409 101.448 170.897 101.448C170.353 101.448 169.937 101.896 169.937 102.392C169.937 102.904 170.353 103.352 170.897 103.352ZM170.097 113H171.681V104.728H170.097V113ZM183.22 104.536C181.972 104.536 180.916 105.176 180.532 106.2C180.052 105.176 179.076 104.536 177.876 104.536C176.82 104.536 175.956 105.064 175.54 105.88V104.728H173.956V113H175.54V107.832C175.54 106.696 176.372 105.912 177.556 105.912C178.596 105.912 179.316 106.76 179.316 107.976V113H180.868V107.832C180.868 106.696 181.7 105.912 182.884 105.912C183.924 105.912 184.644 106.76 184.644 107.976V113H186.196V107.736C186.196 105.864 184.948 104.536 183.22 104.536ZM192.264 111.784C190.84 111.784 189.832 110.792 189.624 109.416H196.136C196.136 106.456 194.68 104.536 192.152 104.536C189.864 104.536 188.024 106.36 188.024 108.84C188.024 111.384 189.976 113.192 192.28 113.192C193.448 113.192 194.888 112.696 195.624 111.912L194.632 110.888C194.136 111.4 193.128 111.784 192.264 111.784ZM192.216 105.944C193.64 105.944 194.424 106.872 194.6 108.152H189.64C189.896 106.808 190.936 105.944 192.216 105.944ZM204.726 103.816C204.726 103.24 205.11 102.824 205.574 102.824C205.926 102.824 206.246 102.952 206.422 103.128L206.998 102.072C206.55 101.704 205.942 101.48 205.35 101.48C204.07 101.48 203.174 102.408 203.174 103.736V104.728H201.926V106.072H203.174V113H204.726V106.072H206.678V104.728H204.726V103.816ZM209.98 106.312V104.728H208.396V113H209.98V108.296C210.124 106.856 211.34 105.912 213.052 105.912V104.536C211.628 104.536 210.508 105.224 209.98 106.312ZM218.267 113.192C220.619 113.192 222.603 111.208 222.603 108.856C222.603 106.504 220.619 104.536 218.267 104.536C215.899 104.536 213.899 106.504 213.899 108.856C213.899 111.208 215.899 113.192 218.267 113.192ZM218.267 111.816C216.747 111.816 215.483 110.472 215.483 108.856C215.483 107.256 216.747 105.912 218.267 105.912C219.755 105.912 221.019 107.256 221.019 108.856C221.019 110.472 219.755 111.816 218.267 111.816ZM233.705 104.536C232.457 104.536 231.401 105.176 231.017 106.2C230.537 105.176 229.561 104.536 228.361 104.536C227.305 104.536 226.441 105.064 226.025 105.88V104.728H224.441V113H226.025V107.832C226.025 106.696 226.857 105.912 228.041 105.912C229.081 105.912 229.801 106.76 229.801 107.976V113H231.353V107.832C231.353 106.696 232.185 105.912 233.369 105.912C234.409 105.912 235.129 106.76 235.129 107.976V113H236.681V107.736C236.681 105.864 235.433 104.536 233.705 104.536ZM252.783 104.536C251.535 104.536 250.479 105.176 250.095 106.2C249.615 105.176 248.639 104.536 247.439 104.536C246.383 104.536 245.519 105.064 245.103 105.88V104.728H243.519V113H245.103V107.832C245.103 106.696 245.935 105.912 247.119 105.912C248.159 105.912 248.879 106.76 248.879 107.976V113H250.431V107.832C250.431 106.696 251.263 105.912 252.447 105.912C253.487 105.912 254.207 106.76 254.207 107.976V113H255.759V107.736C255.759 105.864 254.511 104.536 252.783 104.536ZM263.731 104.728V110.088C263.603 111.064 262.611 111.816 261.459 111.816C260.339 111.816 259.555 110.952 259.555 109.72V104.728H258.003V109.992C258.003 111.864 259.283 113.192 261.107 113.192C262.227 113.192 263.235 112.616 263.731 111.8V113H265.315V104.728H263.731ZM267.613 113H269.181V101.816H267.613V113ZM275.36 111.512C275.184 111.688 274.864 111.816 274.512 111.816C274.048 111.816 273.664 111.4 273.664 110.824V106.072H275.616V104.728H273.664V102.456H272.112V104.728H270.864V106.072H272.112V110.936C272.112 112.264 273.008 113.192 274.288 113.192C274.88 113.192 275.488 112.968 275.936 112.6L275.36 111.512ZM278.334 103.352C278.846 103.352 279.278 102.904 279.278 102.392C279.278 101.896 278.846 101.448 278.334 101.448C277.79 101.448 277.374 101.896 277.374 102.392C277.374 102.904 277.79 103.352 278.334 103.352ZM277.534 113H279.118V104.728H277.534V113ZM286.002 104.536C284.722 104.536 283.698 105.144 283.058 106.152V104.728H281.49V115.752H283.058V111.56C283.698 112.584 284.722 113.192 286.002 113.192C288.178 113.192 289.81 111.4 289.81 108.856C289.81 106.328 288.178 104.536 286.002 104.536ZM285.618 111.816C284.13 111.816 283.058 110.584 283.058 108.856C283.058 107.128 284.13 105.912 285.618 105.912C287.138 105.912 288.21 107.128 288.21 108.856C288.21 110.584 287.138 111.816 285.618 111.816ZM291.722 113H293.29V101.816H291.722V113ZM299.389 111.784C297.965 111.784 296.957 110.792 296.749 109.416H303.261C303.261 106.456 301.805 104.536 299.277 104.536C296.989 104.536 295.149 106.36 295.149 108.84C295.149 111.384 297.101 113.192 299.405 113.192C300.573 113.192 302.013 112.696 302.749 111.912L301.757 110.888C301.261 111.4 300.253 111.784 299.389 111.784ZM299.341 105.944C300.765 105.944 301.549 106.872 301.725 108.152H296.765C297.021 106.808 298.061 105.944 299.341 105.944ZM9.056 137.192C10.288 137.192 11.36 136.68 12.16 135.864L11.088 134.888C10.576 135.464 9.84 135.816 9.072 135.816C7.552 135.816 6.304 134.472 6.304 132.856C6.304 131.256 7.552 129.912 9.056 129.912C9.824 129.912 10.544 130.248 11.04 130.808L12.112 129.816C11.328 129.032 10.256 128.536 9.072 128.536C6.704 128.536 4.704 130.504 4.704 132.856C4.704 135.208 6.704 137.192 9.056 137.192ZM18.0631 128.536C16.9271 128.536 15.9191 129.128 15.4231 129.96V125.816H13.8551V137H15.4231V131.864C15.4231 130.792 16.4631 129.912 17.7111 129.912C18.8311 129.912 19.6151 130.776 19.6151 132.008V137H21.1671V131.736C21.1671 129.864 19.8871 128.536 18.0631 128.536ZM26.9053 128.536C25.9933 128.536 24.9533 128.776 23.7693 129.368L24.3453 130.536C25.0653 130.168 25.8653 129.848 26.6813 129.848C28.3293 129.848 28.8093 130.952 28.8093 131.992V132.248C28.0093 131.976 27.1293 131.8 26.3133 131.8C24.4893 131.8 23.0013 132.904 23.0013 134.552C23.0013 136.168 24.2973 137.192 26.0573 137.192C27.0653 137.192 28.2013 136.728 28.8093 135.864V137H30.3612V131.992C30.3612 129.944 29.1293 128.536 26.9053 128.536ZM26.3613 135.944C25.3213 135.944 24.5213 135.4 24.5213 134.504C24.5213 133.608 25.4493 132.984 26.5533 132.984C27.3693 132.984 28.1373 133.096 28.8093 133.304V134.408C28.5373 135.432 27.3853 135.944 26.3613 135.944ZM36.86 128.536C35.74 128.536 34.732 129.112 34.236 129.928V128.728H32.652V137H34.236V131.64C34.364 130.664 35.356 129.912 36.508 129.912C37.628 129.912 38.412 130.776 38.412 132.008V137H39.964V131.736C39.964 129.864 38.684 128.536 36.86 128.536ZM46.4381 128.536C45.3181 128.536 44.3101 129.112 43.8141 129.928V128.728H42.2301V137H43.8141V131.64C43.9421 130.664 44.9341 129.912 46.0861 129.912C47.2061 129.912 47.9901 130.776 47.9901 132.008V137H49.5421V131.736C49.5421 129.864 48.2621 128.536 46.4381 128.536ZM55.6003 135.784C54.1763 135.784 53.1683 134.792 52.9603 133.416H59.4722C59.4722 130.456 58.0163 128.536 55.4883 128.536C53.2003 128.536 51.3603 130.36 51.3603 132.84C51.3603 135.384 53.3123 137.192 55.6163 137.192C56.7843 137.192 58.2243 136.696 58.9603 135.912L57.9683 134.888C57.4723 135.4 56.4643 135.784 55.6003 135.784ZM55.5523 129.944C56.9763 129.944 57.7603 130.872 57.9363 132.152H52.9763C53.2323 130.808 54.2723 129.944 55.5523 129.944ZM61.3083 137H62.8763V125.816H61.3083V137ZM68.1753 137.192C69.9833 137.192 71.3113 136.2 71.3113 134.632C71.3113 132.984 69.8553 132.536 68.4953 132.136C67.1033 131.704 66.5913 131.512 66.5913 130.872C66.5913 130.248 67.2313 129.896 68.0473 129.896C68.7673 129.896 69.5993 130.168 70.3993 130.664L71.1033 129.496C70.2073 128.904 69.1193 128.536 68.0473 128.536C66.2873 128.536 65.0233 129.528 65.0393 131.048C65.0393 132.392 65.9833 132.936 67.8873 133.464C68.9113 133.752 69.7593 133.992 69.7593 134.76C69.7593 135.4 69.1193 135.832 68.1913 135.832C67.2153 135.832 66.2713 135.464 65.3913 134.824L64.6393 135.96C65.6313 136.76 66.9593 137.192 68.1753 137.192ZM81.2021 128.536C80.2901 128.536 79.2501 128.776 78.0661 129.368L78.6421 130.536C79.3621 130.168 80.1621 129.848 80.9781 129.848C82.6261 129.848 83.1061 130.952 83.1061 131.992V132.248C82.3061 131.976 81.4261 131.8 80.6101 131.8C78.7861 131.8 77.2981 132.904 77.2981 134.552C77.2981 136.168 78.5941 137.192 80.3541 137.192C81.3621 137.192 82.4981 136.728 83.1061 135.864V137H84.6581V131.992C84.6581 129.944 83.4261 128.536 81.2021 128.536ZM80.6581 135.944C79.6181 135.944 78.8181 135.4 78.8181 134.504C78.8181 133.608 79.7461 132.984 80.8501 132.984C81.6661 132.984 82.4341 133.096 83.1061 133.304V134.408C82.8341 135.432 81.6821 135.944 80.6581 135.944ZM91.1569 128.536C90.0369 128.536 89.0289 129.112 88.5329 129.928V128.728H86.9489V137H88.5329V131.64C88.6609 130.664 89.6529 129.912 90.8049 129.912C91.9249 129.912 92.7089 130.776 92.7089 132.008V137H94.2609V131.736C94.2609 129.864 92.9809 128.536 91.1569 128.536ZM102.895 125.816V130.152C102.255 129.144 101.231 128.536 99.951 128.536C97.775 128.536 96.143 130.328 96.143 132.856C96.143 135.4 97.775 137.192 99.951 137.192C101.231 137.192 102.255 136.584 102.895 135.56V137H104.463V125.816H102.895ZM100.335 135.816C98.815 135.816 97.743 134.584 97.743 132.856C97.743 131.128 98.815 129.912 100.335 129.912C101.823 129.912 102.895 131.128 102.895 132.856C102.895 134.584 101.823 135.816 100.335 135.816ZM120.666 128.536C119.418 128.536 118.362 129.176 117.978 130.2C117.498 129.176 116.522 128.536 115.322 128.536C114.266 128.536 113.402 129.064 112.986 129.88V128.728H111.402V137H112.986V131.832C112.986 130.696 113.818 129.912 115.002 129.912C116.042 129.912 116.762 130.76 116.762 131.976V137H118.314V131.832C118.314 130.696 119.146 129.912 120.33 129.912C121.37 129.912 122.09 130.76 122.09 131.976V137H123.642V131.736C123.642 129.864 122.394 128.536 120.666 128.536ZM129.838 137.192C132.19 137.192 134.174 135.208 134.174 132.856C134.174 130.504 132.19 128.536 129.838 128.536C127.47 128.536 125.47 130.504 125.47 132.856C125.47 135.208 127.47 137.192 129.838 137.192ZM129.838 135.816C128.318 135.816 127.054 134.472 127.054 132.856C127.054 131.256 128.318 129.912 129.838 129.912C131.326 129.912 132.59 131.256 132.59 132.856C132.59 134.472 131.326 135.816 129.838 135.816ZM138.435 137H139.923L143.411 128.728H141.699L139.171 135.16L136.595 128.728H134.883L138.435 137ZM148.163 135.784C146.739 135.784 145.731 134.792 145.523 133.416H152.035C152.035 130.456 150.579 128.536 148.051 128.536C145.763 128.536 143.923 130.36 143.923 132.84C143.923 135.384 145.875 137.192 148.179 137.192C149.347 137.192 150.787 136.696 151.523 135.912L150.531 134.888C150.035 135.4 149.027 135.784 148.163 135.784ZM148.115 129.944C149.539 129.944 150.323 130.872 150.499 132.152H145.539C145.795 130.808 146.835 129.944 148.115 129.944ZM159.233 127.352C159.745 127.352 160.177 126.904 160.177 126.392C160.177 125.896 159.745 125.448 159.233 125.448C158.689 125.448 158.273 125.896 158.273 126.392C158.273 126.904 158.689 127.352 159.233 127.352ZM158.433 137H160.017V128.728H158.433V137ZM166.18 135.512C166.004 135.688 165.684 135.816 165.332 135.816C164.868 135.816 164.484 135.4 164.484 134.824V130.072H166.436V128.728H164.484V126.456H162.932V128.728H161.684V130.072H162.932V134.936C162.932 136.264 163.828 137.192 165.108 137.192C165.7 137.192 166.308 136.968 166.756 136.6L166.18 135.512ZM173.733 127.352C174.245 127.352 174.677 126.904 174.677 126.392C174.677 125.896 174.245 125.448 173.733 125.448C173.189 125.448 172.773 125.896 172.773 126.392C172.773 126.904 173.189 127.352 173.733 127.352ZM172.933 137H174.517V128.728H172.933V137ZM181.016 128.536C179.896 128.536 178.888 129.112 178.392 129.928V128.728H176.808V137H178.392V131.64C178.52 130.664 179.512 129.912 180.664 129.912C181.784 129.912 182.568 130.776 182.568 132.008V137H184.12V131.736C184.12 129.864 182.84 128.536 181.016 128.536ZM190.258 135.512C190.082 135.688 189.762 135.816 189.41 135.816C188.946 135.816 188.562 135.4 188.562 134.824V130.072H190.514V128.728H188.562V126.456H187.01V128.728H185.762V130.072H187.01V134.936C187.01 136.264 187.906 137.192 189.186 137.192C189.778 137.192 190.386 136.968 190.834 136.6L190.258 135.512ZM196.369 137.192C198.721 137.192 200.705 135.208 200.705 132.856C200.705 130.504 198.721 128.536 196.369 128.536C194.001 128.536 192.001 130.504 192.001 132.856C192.001 135.208 194.001 137.192 196.369 137.192ZM196.369 135.816C194.849 135.816 193.585 134.472 193.585 132.856C193.585 131.256 194.849 129.912 196.369 129.912C197.857 129.912 199.121 131.256 199.121 132.856C199.121 134.472 197.857 135.816 196.369 135.816ZM210.608 128.536C209.696 128.536 208.656 128.776 207.472 129.368L208.048 130.536C208.768 130.168 209.568 129.848 210.384 129.848C212.032 129.848 212.512 130.952 212.512 131.992V132.248C211.712 131.976 210.832 131.8 210.016 131.8C208.192 131.8 206.704 132.904 206.704 134.552C206.704 136.168 208 137.192 209.76 137.192C210.768 137.192 211.904 136.728 212.512 135.864V137H214.064V131.992C214.064 129.944 212.832 128.536 210.608 128.536ZM210.064 135.944C209.024 135.944 208.224 135.4 208.224 134.504C208.224 133.608 209.152 132.984 210.256 132.984C211.072 132.984 211.84 133.096 212.512 133.304V134.408C212.24 135.432 211.088 135.944 210.064 135.944ZM227.301 125.816V130.152C226.661 129.144 225.637 128.536 224.357 128.536C222.181 128.536 220.549 130.328 220.549 132.856C220.549 135.4 222.181 137.192 224.357 137.192C225.637 137.192 226.661 136.584 227.301 135.56V137H228.869V125.816H227.301ZM224.741 135.816C223.221 135.816 222.149 134.584 222.149 132.856C222.149 131.128 223.221 129.912 224.741 129.912C226.229 129.912 227.301 131.128 227.301 132.856C227.301 134.584 226.229 135.816 224.741 135.816ZM234.718 128.536C233.806 128.536 232.766 128.776 231.582 129.368L232.158 130.536C232.878 130.168 233.678 129.848 234.494 129.848C236.142 129.848 236.622 130.952 236.622 131.992V132.248C235.822 131.976 234.942 131.8 234.126 131.8C232.302 131.8 230.814 132.904 230.814 134.552C230.814 136.168 232.11 137.192 233.87 137.192C234.878 137.192 236.014 136.728 236.622 135.864V137H238.174V131.992C238.174 129.944 236.942 128.536 234.718 128.536ZM234.174 135.944C233.134 135.944 232.334 135.4 232.334 134.504C232.334 133.608 233.262 132.984 234.366 132.984C235.182 132.984 235.95 133.096 236.622 133.304V134.408C236.35 135.432 235.198 135.944 234.174 135.944ZM244.337 135.512C244.161 135.688 243.841 135.816 243.489 135.816C243.025 135.816 242.641 135.4 242.641 134.824V130.072H244.593V128.728H242.641V126.456H241.089V128.728H239.84V130.072H241.089V134.936C241.089 136.264 241.985 137.192 243.265 137.192C243.857 137.192 244.465 136.968 244.913 136.6L244.337 135.512ZM249.999 128.536C249.087 128.536 248.047 128.776 246.863 129.368L247.439 130.536C248.159 130.168 248.959 129.848 249.775 129.848C251.423 129.848 251.903 130.952 251.903 131.992V132.248C251.103 131.976 250.223 131.8 249.407 131.8C247.583 131.8 246.095 132.904 246.095 134.552C246.095 136.168 247.391 137.192 249.151 137.192C250.159 137.192 251.295 136.728 251.903 135.864V137H253.455V131.992C253.455 129.944 252.223 128.536 249.999 128.536ZM249.455 135.944C248.415 135.944 247.615 135.4 247.615 134.504C247.615 133.608 248.543 132.984 249.647 132.984C250.463 132.984 251.231 133.096 251.903 133.304V134.408C251.631 135.432 250.479 135.944 249.455 135.944ZM260.324 137H261.892V125.816H260.324V137ZM267.671 128.536C266.759 128.536 265.719 128.776 264.535 129.368L265.111 130.536C265.831 130.168 266.631 129.848 267.447 129.848C269.095 129.848 269.575 130.952 269.575 131.992V132.248C268.775 131.976 267.895 131.8 267.079 131.8C265.255 131.8 263.767 132.904 263.767 134.552C263.767 136.168 265.063 137.192 266.823 137.192C267.831 137.192 268.967 136.728 269.575 135.864V137H271.127V131.992C271.127 129.944 269.895 128.536 267.671 128.536ZM267.127 135.944C266.087 135.944 265.287 135.4 265.287 134.504C265.287 133.608 266.215 132.984 267.319 132.984C268.135 132.984 268.903 133.096 269.575 133.304V134.408C269.303 135.432 268.151 135.944 267.127 135.944ZM280.938 128.728H279.018L274.97 132.952V125.816H273.402V137H274.97V134.872L276.298 133.528L278.89 137H280.778L277.37 132.472L280.938 128.728ZM286.038 135.784C284.614 135.784 283.606 134.792 283.398 133.416H289.91C289.91 130.456 288.454 128.536 285.926 128.536C283.638 128.536 281.798 130.36 281.798 132.84C281.798 135.384 283.75 137.192 286.054 137.192C287.222 137.192 288.662 136.696 289.398 135.912L288.406 134.888C287.91 135.4 286.902 135.784 286.038 135.784ZM285.99 129.944C287.414 129.944 288.198 130.872 288.374 132.152H283.414C283.67 130.808 284.71 129.944 285.99 129.944ZM292.546 139.192C293.57 138.024 293.938 137.336 293.938 136.584C293.938 135.704 293.49 135.064 292.786 135.064C292.178 135.064 291.714 135.56 291.714 136.12C291.714 136.712 292.178 137.192 292.754 137.192C292.626 137.688 292.338 138.2 291.874 138.68L292.546 139.192ZM301.499 127.352C302.011 127.352 302.443 126.904 302.443 126.392C302.443 125.896 302.011 125.448 301.499 125.448C300.955 125.448 300.539 125.896 300.539 126.392C300.539 126.904 300.955 127.352 301.499 127.352ZM300.699 137H302.283V128.728H300.699V137ZM308.782 128.536C307.662 128.536 306.654 129.112 306.158 129.928V128.728H304.574V137H306.158V131.64C306.286 130.664 307.278 129.912 308.43 129.912C309.55 129.912 310.334 130.776 310.334 132.008V137H311.886V131.736C311.886 129.864 310.606 128.536 308.782 128.536ZM90.3188 151.352C90.8308 151.352 91.2628 150.904 91.2628 150.392C91.2628 149.896 90.8308 149.448 90.3188 149.448C89.7748 149.448 89.3588 149.896 89.3588 150.392C89.3588 150.904 89.7748 151.352 90.3188 151.352ZM89.5188 161H91.1028V152.728H89.5188V161ZM97.2662 159.512C97.0902 159.688 96.7702 159.816 96.4182 159.816C95.9542 159.816 95.5702 159.4 95.5702 158.824V154.072H97.5222V152.728H95.5702V150.456H94.0182V152.728H92.7702V154.072H94.0182V158.936C94.0182 160.264 94.9142 161.192 96.1942 161.192C96.7862 161.192 97.3942 160.968 97.8422 160.6L97.2662 159.512ZM102.449 161.192C104.257 161.192 105.585 160.2 105.585 158.632C105.585 156.984 104.129 156.536 102.769 156.136C101.377 155.704 100.865 155.512 100.865 154.872C100.865 154.248 101.505 153.896 102.321 153.896C103.041 153.896 103.873 154.168 104.673 154.664L105.377 153.496C104.481 152.904 103.393 152.536 102.321 152.536C100.561 152.536 99.2967 153.528 99.3127 155.048C99.3127 156.392 100.257 156.936 102.161 157.464C103.185 157.752 104.033 157.992 104.033 158.76C104.033 159.4 103.393 159.832 102.465 159.832C101.489 159.832 100.545 159.464 99.6647 158.824L98.9127 159.96C99.9047 160.76 101.233 161.192 102.449 161.192ZM115.924 161.192C118.276 161.192 120.26 159.208 120.26 156.856C120.26 154.504 118.276 152.536 115.924 152.536C113.556 152.536 111.556 154.504 111.556 156.856C111.556 159.208 113.556 161.192 115.924 161.192ZM115.924 159.816C114.404 159.816 113.14 158.472 113.14 156.856C113.14 155.256 114.404 153.912 115.924 153.912C117.412 153.912 118.676 155.256 118.676 156.856C118.676 158.472 117.412 159.816 115.924 159.816ZM123.777 154.312V152.728H122.193V161H123.777V156.296C123.921 154.856 125.137 153.912 126.849 153.912V152.536C125.425 152.536 124.305 153.224 123.777 154.312ZM129.178 151.352C129.69 151.352 130.122 150.904 130.122 150.392C130.122 149.896 129.69 149.448 129.178 149.448C128.634 149.448 128.218 149.896 128.218 150.392C128.218 150.904 128.634 151.352 129.178 151.352ZM128.378 161H129.962V152.728H128.378V161ZM138.542 152.728V154.056C137.918 153.128 136.862 152.536 135.614 152.536C133.438 152.536 131.854 154.152 131.854 156.456C131.854 158.76 133.438 160.392 135.614 160.392C136.862 160.392 137.886 159.832 138.542 158.888V160.088C138.542 161.528 137.47 162.376 135.694 162.376C134.702 162.376 133.71 162.04 133.102 161.464L132.478 162.648C133.262 163.288 134.542 163.752 135.934 163.752C138.382 163.752 140.126 162.248 140.126 160.12V152.728H138.542ZM136.014 159.016C134.542 159.016 133.502 157.96 133.502 156.456C133.502 154.968 134.542 153.912 136.014 153.912C137.486 153.912 138.542 154.968 138.542 156.456C138.542 157.96 137.486 159.016 136.014 159.016ZM143.272 151.352C143.784 151.352 144.216 150.904 144.216 150.392C144.216 149.896 143.784 149.448 143.272 149.448C142.728 149.448 142.312 149.896 142.312 150.392C142.312 150.904 142.728 151.352 143.272 151.352ZM142.472 161H144.056V152.728H142.472V161ZM150.555 152.536C149.435 152.536 148.427 153.112 147.931 153.928V152.728H146.347V161H147.931V155.64C148.059 154.664 149.051 153.912 150.203 153.912C151.323 153.912 152.107 154.776 152.107 156.008V161H153.659V155.736C153.659 153.864 152.379 152.536 150.555 152.536ZM159.397 152.536C158.485 152.536 157.445 152.776 156.261 153.368L156.837 154.536C157.557 154.168 158.357 153.848 159.173 153.848C160.821 153.848 161.301 154.952 161.301 155.992V156.248C160.501 155.976 159.621 155.8 158.805 155.8C156.981 155.8 155.493 156.904 155.493 158.552C155.493 160.168 156.789 161.192 158.549 161.192C159.557 161.192 160.693 160.728 161.301 159.864V161H162.853V155.992C162.853 153.944 161.621 152.536 159.397 152.536ZM158.853 159.944C157.813 159.944 157.013 159.4 157.013 158.504C157.013 157.608 157.941 156.984 159.045 156.984C159.861 156.984 160.629 157.096 161.301 157.304V158.408C161.029 159.432 159.877 159.944 158.853 159.944ZM165.144 161H166.712V149.816H165.144V161ZM175.773 151.816C175.773 151.24 176.157 150.824 176.621 150.824C176.973 150.824 177.293 150.952 177.469 151.128L178.045 150.072C177.597 149.704 176.989 149.48 176.397 149.48C175.117 149.48 174.221 150.408 174.221 151.736V152.728H172.973V154.072H174.221V161H175.773V154.072H177.725V152.728H175.773V151.816ZM183.283 161.192C185.635 161.192 187.619 159.208 187.619 156.856C187.619 154.504 185.635 152.536 183.283 152.536C180.915 152.536 178.915 154.504 178.915 156.856C178.915 159.208 180.915 161.192 183.283 161.192ZM183.283 159.816C181.763 159.816 180.499 158.472 180.499 156.856C180.499 155.256 181.763 153.912 183.283 153.912C184.771 153.912 186.035 155.256 186.035 156.856C186.035 158.472 184.771 159.816 183.283 159.816ZM191.136 154.312V152.728H189.552V161H191.136V156.296C191.28 154.856 192.496 153.912 194.208 153.912V152.536C192.784 152.536 191.664 153.224 191.136 154.312ZM205.002 152.536C203.754 152.536 202.698 153.176 202.314 154.2C201.834 153.176 200.858 152.536 199.658 152.536C198.602 152.536 197.738 153.064 197.322 153.88V152.728H195.738V161H197.322V155.832C197.322 154.696 198.154 153.912 199.338 153.912C200.378 153.912 201.098 154.76 201.098 155.976V161H202.65V155.832C202.65 154.696 203.482 153.912 204.666 153.912C205.706 153.912 206.426 154.76 206.426 155.976V161H207.978V155.736C207.978 153.864 206.73 152.536 205.002 152.536ZM213.726 152.536C212.814 152.536 211.774 152.776 210.59 153.368L211.166 154.536C211.886 154.168 212.686 153.848 213.502 153.848C215.15 153.848 215.63 154.952 215.63 155.992V156.248C214.83 155.976 213.95 155.8 213.134 155.8C211.31 155.8 209.822 156.904 209.822 158.552C209.822 160.168 211.118 161.192 212.878 161.192C213.886 161.192 215.022 160.728 215.63 159.864V161H217.182V155.992C217.182 153.944 215.95 152.536 213.726 152.536ZM213.182 159.944C212.142 159.944 211.342 159.4 211.342 158.504C211.342 157.608 212.27 156.984 213.374 156.984C214.19 156.984 214.958 157.096 215.63 157.304V158.408C215.358 159.432 214.206 159.944 213.182 159.944ZM223.344 159.512C223.168 159.688 222.848 159.816 222.496 159.816C222.032 159.816 221.648 159.4 221.648 158.824V154.072H223.6V152.728H221.648V150.456H220.096V152.728H218.848V154.072H220.096V158.936C220.096 160.264 220.992 161.192 222.272 161.192C222.864 161.192 223.472 160.968 223.92 160.6L223.344 159.512ZM226.527 161.192C227.103 161.192 227.567 160.696 227.567 160.104C227.567 159.56 227.103 159.064 226.527 159.064C225.919 159.064 225.455 159.56 225.455 160.104C225.455 160.696 225.919 161.192 226.527 161.192Z" fill="#8989A2"/>
</svg>
