<svg width="307" height="168" viewBox="0 0 307 168" fill="none" xmlns="http://www.w3.org/2000/svg">
<path d="M153.5 40C164.546 40 173.5 31.0457 173.5 20C173.5 8.9543 164.546 0 153.5 0C142.454 0 133.5 8.9543 133.5 20C133.5 31.0457 142.454 40 153.5 40Z" fill="#FFF1F0"/>
<path d="M148.485 19.438V12.471H157.537V19.438L160.444 17.823L158.544 16.708V11.965C158.544 11.8324 158.491 11.7052 158.398 11.6115C158.304 11.5177 158.177 11.465 158.044 11.465H147.982C147.849 11.465 147.722 11.5177 147.628 11.6115C147.535 11.7052 147.482 11.8324 147.482 11.965V16.706L145.562 17.815L148.485 19.438Z" fill="#F5222D"/>
<path d="M153.255 22.9671C153.18 23.0087 153.096 23.0306 153.011 23.0306C152.926 23.0306 152.842 23.0087 152.767 22.9671L144.965 18.6331V27.0531C144.965 27.1857 145.018 27.3128 145.111 27.4066C145.205 27.5004 145.332 27.5531 145.465 27.5531H160.554C160.687 27.5531 160.814 27.5004 160.908 27.4066C161.001 27.3128 161.054 27.1857 161.054 27.0531V18.6331L153.255 22.9671Z" fill="#F5222D"/>
<path d="M151.502 18.713L149.638 16.849C149.591 16.8025 149.554 16.7472 149.528 16.6862C149.503 16.6251 149.49 16.5597 149.49 16.4935C149.49 16.4274 149.503 16.362 149.528 16.3009C149.554 16.2399 149.591 16.1845 149.638 16.138L151.502 14.274L152.213 14.985L150.705 16.494L152.214 18.003L151.502 18.713Z" fill="#F5222D"/>
<path d="M154.522 18.713L153.811 18.002L155.32 16.493L153.808 14.988L154.519 14.277L156.383 16.138C156.43 16.1845 156.467 16.2399 156.493 16.3009C156.518 16.3619 156.531 16.4274 156.531 16.4935C156.531 16.5597 156.518 16.6251 156.493 16.6862C156.467 16.7472 156.43 16.8025 156.383 16.849L154.522 18.713Z" fill="#F5222D"/>
<path d="M74.088 73H76.44V69.432H79.032C81.416 69.432 83.176 67.896 83.176 65.72C83.176 63.544 81.416 62.008 79.032 62.008H74.088V73ZM76.44 67.272V64.168H78.776C79.944 64.168 80.744 64.776 80.744 65.72C80.744 66.664 79.944 67.272 78.776 67.272H76.44ZM88.6505 73.192C91.0985 73.192 93.1465 71.208 93.1465 68.856C93.1465 66.504 91.0985 64.536 88.6505 64.536C86.1865 64.536 84.1225 66.504 84.1225 68.856C84.1225 71.208 86.1865 73.192 88.6505 73.192ZM88.6505 71.224C87.4025 71.224 86.3625 70.136 86.3625 68.856C86.3625 67.576 87.4025 66.504 88.6505 66.504C89.8825 66.504 90.9225 67.576 90.9225 68.856C90.9225 70.136 89.8825 71.224 88.6505 71.224ZM96.4165 73H98.5125L100.065 67.8L101.601 73H103.697L106.513 64.728H104.225L102.657 69.88L101.025 64.728H99.0885L97.4565 69.88L95.8885 64.728H93.6005L96.4165 73ZM111.303 71.128C110.327 71.128 109.607 70.52 109.335 69.624H115.303C115.303 66.504 113.783 64.536 111.191 64.536C108.775 64.536 106.935 66.344 106.935 68.84C106.935 71.384 108.855 73.192 111.319 73.192C112.535 73.192 113.959 72.68 114.695 71.912L113.207 70.392C112.759 70.824 111.959 71.128 111.303 71.128ZM111.287 66.6C112.231 66.6 112.839 67.128 113.063 67.944H109.367C109.671 67.112 110.407 66.6 111.287 66.6ZM119.219 66.264V64.728H116.883V73H119.219V69.048C119.219 67.496 120.323 66.504 122.051 66.504V64.536C120.787 64.536 119.763 65.192 119.219 66.264ZM126.167 64.28C126.167 63.736 126.519 63.352 126.951 63.352C127.271 63.352 127.591 63.464 127.751 63.624L128.311 62.2C127.831 61.768 127.079 61.48 126.407 61.48C124.951 61.48 123.927 62.52 123.927 64.008V64.728H122.791V66.616H123.927V73H126.167V66.616H127.959V64.728H126.167V64.28ZM134.95 64.728V69.672L134.934 69.624C134.934 70.52 134.182 71.224 133.206 71.224C132.278 71.224 131.638 70.52 131.638 69.496V64.728H129.382V69.992C129.382 71.864 130.662 73.192 132.454 73.192C133.526 73.192 134.454 72.712 134.95 71.96V73H137.286V64.728H134.95ZM139.29 73H141.626V61.816H139.29V73ZM156.261 73H158.917L154.437 62.008H151.797L147.317 73H149.957L150.661 71.272H155.557L156.261 73ZM151.477 69.272L153.109 65.256L154.741 69.272H151.477ZM160.149 73H162.485V61.816H160.149V73ZM170.508 64.728V65.848C169.948 65.064 168.892 64.536 167.772 64.536C165.692 64.536 164.108 66.152 164.108 68.456C164.108 70.76 165.692 72.392 167.772 72.392C168.86 72.392 169.852 71.912 170.508 71.112V72.024C170.508 73.096 169.548 73.784 168.044 73.784C167.084 73.784 166.124 73.48 165.58 73L164.764 74.648C165.58 75.288 166.956 75.752 168.412 75.752C171.02 75.752 172.86 74.248 172.86 72.12V64.728H170.508ZM168.508 70.424C167.34 70.424 166.508 69.608 166.508 68.456C166.508 67.304 167.34 66.504 168.508 66.504C169.676 66.504 170.508 67.304 170.508 68.456C170.508 69.608 169.676 70.424 168.508 70.424ZM178.979 73.192C181.427 73.192 183.475 71.208 183.475 68.856C183.475 66.504 181.427 64.536 178.979 64.536C176.515 64.536 174.451 66.504 174.451 68.856C174.451 71.208 176.515 73.192 178.979 73.192ZM178.979 71.224C177.731 71.224 176.691 70.136 176.691 68.856C176.691 67.576 177.731 66.504 178.979 66.504C180.211 66.504 181.251 67.576 181.251 68.856C181.251 70.136 180.211 71.224 178.979 71.224ZM187.391 66.264V64.728H185.055V73H187.391V69.048C187.391 67.496 188.495 66.504 190.223 66.504V64.536C188.959 64.536 187.935 65.192 187.391 66.264ZM192.739 63.592C193.427 63.592 193.987 63.016 193.987 62.312C193.987 61.656 193.427 61.064 192.739 61.064C192.019 61.064 191.459 61.656 191.459 62.312C191.459 63.016 192.019 63.592 192.739 63.592ZM191.555 73H193.891V64.728H191.555V73ZM200.282 70.952C200.122 71.112 199.802 71.224 199.482 71.224C199.05 71.224 198.698 70.84 198.698 70.296V66.616H200.49V64.728H198.698V62.456H196.458V64.728H195.322V66.616H196.458V70.664C196.458 72.152 197.482 73.192 198.938 73.192C199.61 73.192 200.362 72.904 200.842 72.472L200.282 70.952ZM207.089 64.536C206.033 64.536 205.121 65.016 204.609 65.736V61.816H202.273V73H204.609V68.104C204.609 67.208 205.361 66.504 206.337 66.504C207.265 66.504 207.905 67.208 207.905 68.232V73H210.161V67.736C210.161 65.864 208.881 64.536 207.089 64.536ZM221.973 64.536C220.741 64.536 219.717 65.128 219.285 66.04C218.773 65.112 217.797 64.536 216.661 64.536C215.637 64.536 214.821 65.032 214.421 65.816V64.728H212.085V73H214.421V68.008C214.421 67.128 215.077 66.504 216.021 66.504C216.869 66.504 217.477 67.176 217.477 68.136V73.016H219.717V68.008C219.717 67.128 220.389 66.504 221.317 66.504C222.181 66.504 222.789 67.176 222.789 68.136V73.016H225.029V67.736C225.029 65.864 223.701 64.536 221.973 64.536ZM230.097 73.192C232.129 73.192 233.457 72.152 233.457 70.52C233.457 68.712 231.873 68.232 230.449 67.864C229.329 67.56 228.993 67.432 228.993 66.984C228.993 66.696 229.393 66.488 229.969 66.488C230.673 66.488 231.537 66.76 232.289 67.224L233.233 65.56C232.321 64.952 231.153 64.536 229.969 64.536C228.017 64.536 226.721 65.656 226.737 67.224C226.753 68.856 228.065 69.32 229.761 69.736C230.609 69.96 231.217 70.12 231.217 70.632C231.217 71 230.769 71.256 230.145 71.256C229.041 71.256 228.113 70.856 227.377 70.328L226.369 71.944C227.361 72.744 228.769 73.192 230.097 73.192Z" fill="#160637"/>
<path d="M13.5729 113H15.1889L18.1169 104.248L21.0129 113H22.6289L26.2449 102.008H24.4529L21.7489 110.392L18.9969 102.008H17.2049L14.4529 110.392L11.7489 102.008H9.95694L13.5729 113ZM28.6782 103.352C29.1902 103.352 29.6222 102.904 29.6222 102.392C29.6222 101.896 29.1902 101.448 28.6782 101.448C28.1342 101.448 27.7182 101.896 27.7182 102.392C27.7182 102.904 28.1342 103.352 28.6782 103.352ZM27.8782 113H29.4622V104.728H27.8782V113ZM35.6256 111.512C35.4496 111.688 35.1296 111.816 34.7776 111.816C34.3136 111.816 33.9296 111.4 33.9296 110.824V106.072H35.8816V104.728H33.9296V102.456H32.3776V104.728H31.1296V106.072H32.3776V110.936C32.3776 112.264 33.2736 113.192 34.5536 113.192C35.1456 113.192 35.7536 112.968 36.2016 112.6L35.6256 111.512ZM42.0241 104.536C40.8881 104.536 39.8801 105.128 39.3841 105.96V101.816H37.8161V113H39.3841V107.864C39.3841 106.792 40.4241 105.912 41.6721 105.912C42.7921 105.912 43.5761 106.776 43.5761 108.008V113H45.1281V107.736C45.1281 105.864 43.8481 104.536 42.0241 104.536ZM55.8443 111.512C55.6683 111.688 55.3483 111.816 54.9963 111.816C54.5323 111.816 54.1483 111.4 54.1483 110.824V106.072H56.1003V104.728H54.1483V102.456H52.5963V104.728H51.3483V106.072H52.5963V110.936C52.5963 112.264 53.4923 113.192 54.7723 113.192C55.3643 113.192 55.9723 112.968 56.4203 112.6L55.8443 111.512ZM62.2428 104.536C61.1068 104.536 60.0988 105.128 59.6028 105.96V101.816H58.0348V113H59.6028V107.864C59.6028 106.792 60.6428 105.912 61.8908 105.912C63.0108 105.912 63.7948 106.776 63.7948 108.008V113H65.3468V107.736C65.3468 105.864 64.0668 104.536 62.2428 104.536ZM71.4049 111.784C69.9809 111.784 68.9729 110.792 68.7649 109.416H75.2769C75.2769 106.456 73.8209 104.536 71.2929 104.536C69.0049 104.536 67.1649 106.36 67.1649 108.84C67.1649 111.384 69.1169 113.192 71.4209 113.192C72.5889 113.192 74.0289 112.696 74.7649 111.912L73.7729 110.888C73.2769 111.4 72.2689 111.784 71.4049 111.784ZM71.3569 105.944C72.7809 105.944 73.5649 106.872 73.7409 108.152H68.7809C69.0369 106.808 70.0769 105.944 71.3569 105.944ZM85.8991 104.536C84.7631 104.536 83.7551 105.128 83.2591 105.96V101.816H81.6911V113H83.2591V107.864C83.2591 106.792 84.2991 105.912 85.5471 105.912C86.6671 105.912 87.4511 106.776 87.4511 108.008V113H89.0031V107.736C89.0031 105.864 87.7231 104.536 85.8991 104.536ZM95.0612 111.784C93.6372 111.784 92.6292 110.792 92.4212 109.416H98.9332C98.9332 106.456 97.4772 104.536 94.9492 104.536C92.6612 104.536 90.8212 106.36 90.8212 108.84C90.8212 111.384 92.7732 113.192 95.0772 113.192C96.2452 113.192 97.6852 112.696 98.4212 111.912L97.4292 110.888C96.9332 111.4 95.9252 111.784 95.0612 111.784ZM95.0132 105.944C96.4372 105.944 97.2212 106.872 97.3972 108.152H92.4372C92.6932 106.808 93.7332 105.944 95.0132 105.944ZM100.769 113H102.337V101.816H100.769V113ZM109.236 104.536C107.956 104.536 106.932 105.144 106.292 106.152V104.728H104.724V115.752H106.292V111.56C106.932 112.584 107.956 113.192 109.236 113.192C111.412 113.192 113.044 111.4 113.044 108.856C113.044 106.328 111.412 104.536 109.236 104.536ZM108.852 111.816C107.364 111.816 106.292 110.584 106.292 108.856C106.292 107.128 107.364 105.912 108.852 105.912C110.372 105.912 111.444 107.128 111.444 108.856C111.444 110.584 110.372 111.816 108.852 111.816ZM123.455 113.192C125.807 113.192 127.791 111.208 127.791 108.856C127.791 106.504 125.807 104.536 123.455 104.536C121.087 104.536 119.087 106.504 119.087 108.856C119.087 111.208 121.087 113.192 123.455 113.192ZM123.455 111.816C121.935 111.816 120.671 110.472 120.671 108.856C120.671 107.256 121.935 105.912 123.455 105.912C124.943 105.912 126.207 107.256 126.207 108.856C126.207 110.472 124.943 111.816 123.455 111.816ZM131.82 103.816C131.82 103.24 132.204 102.824 132.668 102.824C133.02 102.824 133.34 102.952 133.516 103.128L134.092 102.072C133.644 101.704 133.036 101.48 132.444 101.48C131.164 101.48 130.268 102.408 130.268 103.736V104.728H129.02V106.072H130.268V113H131.82V106.072H133.772V104.728H131.82V103.816ZM144.58 104.536C143.3 104.536 142.276 105.144 141.636 106.152V104.728H140.068V115.752H141.636V111.56C142.276 112.584 143.3 113.192 144.58 113.192C146.756 113.192 148.388 111.4 148.388 108.856C148.388 106.328 146.756 104.536 144.58 104.536ZM144.196 111.816C142.708 111.816 141.636 110.584 141.636 108.856C141.636 107.128 142.708 105.912 144.196 105.912C145.716 105.912 146.788 107.128 146.788 108.856C146.788 110.584 145.716 111.816 144.196 111.816ZM154.22 113.192C156.572 113.192 158.556 111.208 158.556 108.856C158.556 106.504 156.572 104.536 154.22 104.536C151.852 104.536 149.852 106.504 149.852 108.856C149.852 111.208 151.852 113.192 154.22 113.192ZM154.22 111.816C152.7 111.816 151.436 110.472 151.436 108.856C151.436 107.256 152.7 105.912 154.22 105.912C155.708 105.912 156.972 107.256 156.972 108.856C156.972 110.472 155.708 111.816 154.22 111.816ZM162.162 113H163.618L165.618 106.856L167.602 113H169.058L171.842 104.728H170.226L168.338 110.888L166.29 104.728H164.946L162.898 110.888L160.994 104.728H159.378L162.162 113ZM176.827 111.784C175.403 111.784 174.395 110.792 174.187 109.416H180.699C180.699 106.456 179.243 104.536 176.715 104.536C174.427 104.536 172.587 106.36 172.587 108.84C172.587 111.384 174.539 113.192 176.843 113.192C178.011 113.192 179.451 112.696 180.187 111.912L179.195 110.888C178.699 111.4 177.691 111.784 176.827 111.784ZM176.779 105.944C178.203 105.944 178.987 106.872 179.163 108.152H174.203C174.459 106.808 175.499 105.944 176.779 105.944ZM184.199 106.312V104.728H182.615V113H184.199V108.296C184.343 106.856 185.559 105.912 187.271 105.912V104.536C185.847 104.536 184.727 105.224 184.199 106.312ZM190.992 103.816C190.992 103.24 191.376 102.824 191.84 102.824C192.192 102.824 192.512 102.952 192.688 103.128L193.264 102.072C192.816 101.704 192.208 101.48 191.616 101.48C190.336 101.48 189.44 102.408 189.44 103.736V104.728H188.192V106.072H189.44V113H190.992V106.072H192.944V104.728H190.992V103.816ZM200.278 104.728V110.088C200.15 111.064 199.158 111.816 198.006 111.816C196.886 111.816 196.102 110.952 196.102 109.72V104.728H194.55V109.992C194.55 111.864 195.83 113.192 197.654 113.192C198.774 113.192 199.782 112.616 200.278 111.8V113H201.862V104.728H200.278ZM204.16 113H205.728V101.816H204.16V113ZM216.085 104.536C215.173 104.536 214.133 104.776 212.949 105.368L213.525 106.536C214.245 106.168 215.045 105.848 215.861 105.848C217.509 105.848 217.989 106.952 217.989 107.992V108.248C217.189 107.976 216.309 107.8 215.493 107.8C213.669 107.8 212.181 108.904 212.181 110.552C212.181 112.168 213.477 113.192 215.237 113.192C216.245 113.192 217.381 112.728 217.989 111.864V113H219.541V107.992C219.541 105.944 218.309 104.536 216.085 104.536ZM215.541 111.944C214.501 111.944 213.701 111.4 213.701 110.504C213.701 109.608 214.629 108.984 215.733 108.984C216.549 108.984 217.317 109.096 217.989 109.304V110.408C217.717 111.432 216.565 111.944 215.541 111.944ZM221.832 113H223.4V101.816H221.832V113ZM231.995 104.728V106.056C231.371 105.128 230.315 104.536 229.067 104.536C226.891 104.536 225.307 106.152 225.307 108.456C225.307 110.76 226.891 112.392 229.067 112.392C230.315 112.392 231.339 111.832 231.995 110.888V112.088C231.995 113.528 230.923 114.376 229.147 114.376C228.155 114.376 227.163 114.04 226.555 113.464L225.931 114.648C226.715 115.288 227.995 115.752 229.387 115.752C231.835 115.752 233.579 114.248 233.579 112.12V104.728H231.995ZM229.467 111.016C227.995 111.016 226.955 109.96 226.955 108.456C226.955 106.968 227.995 105.912 229.467 105.912C230.939 105.912 231.995 106.968 231.995 108.456C231.995 109.96 230.939 111.016 229.467 111.016ZM239.861 113.192C242.213 113.192 244.197 111.208 244.197 108.856C244.197 106.504 242.213 104.536 239.861 104.536C237.493 104.536 235.493 106.504 235.493 108.856C235.493 111.208 237.493 113.192 239.861 113.192ZM239.861 111.816C238.341 111.816 237.077 110.472 237.077 108.856C237.077 107.256 238.341 105.912 239.861 105.912C241.349 105.912 242.613 107.256 242.613 108.856C242.613 110.472 241.349 111.816 239.861 111.816ZM247.714 106.312V104.728H246.13V113H247.714V108.296C247.858 106.856 249.074 105.912 250.786 105.912V104.536C249.362 104.536 248.242 105.224 247.714 106.312ZM253.116 103.352C253.628 103.352 254.06 102.904 254.06 102.392C254.06 101.896 253.628 101.448 253.116 101.448C252.572 101.448 252.156 101.896 252.156 102.392C252.156 102.904 252.572 103.352 253.116 103.352ZM252.316 113H253.9V104.728H252.316V113ZM260.063 111.512C259.887 111.688 259.567 111.816 259.215 111.816C258.751 111.816 258.367 111.4 258.367 110.824V106.072H260.319V104.728H258.367V102.456H256.815V104.728H255.567V106.072H256.815V110.936C256.815 112.264 257.711 113.192 258.991 113.192C259.583 113.192 260.191 112.968 260.639 112.6L260.063 111.512ZM266.462 104.536C265.326 104.536 264.318 105.128 263.822 105.96V101.816H262.254V113H263.822V107.864C263.822 106.792 264.862 105.912 266.11 105.912C267.23 105.912 268.014 106.776 268.014 108.008V113H269.566V107.736C269.566 105.864 268.286 104.536 266.462 104.536ZM281.08 104.536C279.832 104.536 278.776 105.176 278.392 106.2C277.912 105.176 276.936 104.536 275.736 104.536C274.68 104.536 273.816 105.064 273.4 105.88V104.728H271.816V113H273.4V107.832C273.4 106.696 274.232 105.912 275.416 105.912C276.456 105.912 277.176 106.76 277.176 107.976V113H278.728V107.832C278.728 106.696 279.56 105.912 280.744 105.912C281.784 105.912 282.504 106.76 282.504 107.976V113H284.056V107.736C284.056 105.864 282.808 104.536 281.08 104.536ZM289.324 113.192C291.132 113.192 292.46 112.2 292.46 110.632C292.46 108.984 291.004 108.536 289.644 108.136C288.252 107.704 287.74 107.512 287.74 106.872C287.74 106.248 288.38 105.896 289.196 105.896C289.916 105.896 290.748 106.168 291.548 106.664L292.252 105.496C291.356 104.904 290.268 104.536 289.196 104.536C287.436 104.536 286.172 105.528 286.188 107.048C286.188 108.392 287.132 108.936 289.036 109.464C290.06 109.752 290.908 109.992 290.908 110.76C290.908 111.4 290.268 111.832 289.34 111.832C288.364 111.832 287.42 111.464 286.54 110.824L285.788 111.96C286.78 112.76 288.108 113.192 289.324 113.192ZM295.1 115.192C296.124 114.024 296.492 113.336 296.492 112.584C296.492 111.704 296.044 111.064 295.34 111.064C294.732 111.064 294.268 111.56 294.268 112.12C294.268 112.712 294.732 113.192 295.308 113.192C295.18 113.688 294.892 114.2 294.428 114.68L295.1 115.192ZM32.5747 128.728V130.152C31.9347 129.144 30.9107 128.536 29.6307 128.536C27.4547 128.536 25.8227 130.328 25.8227 132.856C25.8227 135.4 27.4547 137.192 29.6307 137.192C30.9107 137.192 31.9347 136.584 32.5747 135.56V139.752H34.1427V128.728H32.5747ZM30.0147 135.816C28.4947 135.816 27.4227 134.584 27.4227 132.856C27.4227 131.128 28.4947 129.912 30.0147 129.912C31.5027 129.912 32.5747 131.128 32.5747 132.856C32.5747 134.584 31.5027 135.816 30.0147 135.816ZM42.2152 128.728V134.088C42.0872 135.064 41.0952 135.816 39.9432 135.816C38.8232 135.816 38.0392 134.952 38.0392 133.72V128.728H36.4872V133.992C36.4872 135.864 37.7672 137.192 39.5912 137.192C40.7112 137.192 41.7192 136.616 42.2152 135.8V137H43.7992V128.728H42.2152ZM49.5693 128.536C48.6573 128.536 47.6173 128.776 46.4333 129.368L47.0093 130.536C47.7293 130.168 48.5293 129.848 49.3453 129.848C50.9933 129.848 51.4733 130.952 51.4733 131.992V132.248C50.6733 131.976 49.7933 131.8 48.9773 131.8C47.1533 131.8 45.6653 132.904 45.6653 134.552C45.6653 136.168 46.9613 137.192 48.7213 137.192C49.7293 137.192 50.8653 136.728 51.4733 135.864V137H53.0253V131.992C53.0253 129.944 51.7933 128.536 49.5693 128.536ZM49.0253 135.944C47.9853 135.944 47.1853 135.4 47.1853 134.504C47.1853 133.608 48.1133 132.984 49.2173 132.984C50.0333 132.984 50.8013 133.096 51.4733 133.304V134.408C51.2013 135.432 50.0493 135.944 49.0253 135.944ZM55.3161 137H56.8841V125.816H55.3161V137ZM59.9751 127.352C60.4871 127.352 60.9191 126.904 60.9191 126.392C60.9191 125.896 60.4871 125.448 59.9751 125.448C59.4311 125.448 59.0151 125.896 59.0151 126.392C59.0151 126.904 59.4311 127.352 59.9751 127.352ZM59.1751 137H60.7591V128.728H59.1751V137ZM66.9224 135.512C66.7464 135.688 66.4264 135.816 66.0744 135.816C65.6104 135.816 65.2264 135.4 65.2264 134.824V130.072H67.1784V128.728H65.2264V126.456H63.6744V128.728H62.4264V130.072H63.6744V134.936C63.6744 136.264 64.5704 137.192 65.8504 137.192C66.4424 137.192 67.0504 136.968 67.4984 136.6L66.9224 135.512ZM70.5689 139.88C71.7529 139.864 72.6329 139.24 73.2249 137.752L76.8729 128.728H75.2249L72.7129 135.256L70.0569 128.728H68.3609L71.9129 137.048L71.4969 137.928C71.2249 138.408 70.8729 138.568 70.3609 138.568C70.0409 138.568 69.6729 138.488 69.3529 138.312L69.0009 139.528C69.4329 139.752 70.0089 139.88 70.5689 139.88ZM84.8863 130.312V128.728H83.3023V137H84.8863V132.296C85.0303 130.856 86.2463 129.912 87.9583 129.912V128.536C86.5343 128.536 85.4143 129.224 84.8863 130.312ZM95.1996 128.728V134.088C95.0716 135.064 94.0796 135.816 92.9276 135.816C91.8076 135.816 91.0236 134.952 91.0236 133.72V128.728H89.4716V133.992C89.4716 135.864 90.7516 137.192 92.5756 137.192C93.6956 137.192 94.7036 136.616 95.1996 135.8V137H96.7836V128.728H95.1996ZM99.0817 137H100.65V125.816H99.0817V137ZM106.749 135.784C105.325 135.784 104.317 134.792 104.109 133.416H110.621C110.621 130.456 109.165 128.536 106.637 128.536C104.349 128.536 102.509 130.36 102.509 132.84C102.509 135.384 104.461 137.192 106.765 137.192C107.933 137.192 109.373 136.696 110.109 135.912L109.117 134.888C108.621 135.4 107.613 135.784 106.749 135.784ZM106.701 129.944C108.125 129.944 108.909 130.872 109.085 132.152H104.125C104.381 130.808 105.421 129.944 106.701 129.944ZM115.449 137.192C117.257 137.192 118.585 136.2 118.585 134.632C118.585 132.984 117.129 132.536 115.769 132.136C114.377 131.704 113.865 131.512 113.865 130.872C113.865 130.248 114.505 129.896 115.321 129.896C116.041 129.896 116.873 130.168 117.673 130.664L118.377 129.496C117.481 128.904 116.393 128.536 115.321 128.536C113.561 128.536 112.297 129.528 112.313 131.048C112.313 132.392 113.257 132.936 115.161 133.464C116.185 133.752 117.033 133.992 117.033 134.76C117.033 135.4 116.393 135.832 115.465 135.832C114.489 135.832 113.545 135.464 112.665 134.824L111.913 135.96C112.905 136.76 114.233 137.192 115.449 137.192ZM134.028 136.52L132.236 134.68C132.796 133.896 133.292 132.984 133.756 131.976L132.492 131.4C132.172 132.248 131.772 133.032 131.308 133.704C130.412 132.776 129.724 132.008 129.068 131.256C130.7 130.552 131.692 129.88 131.692 128.504C131.692 127.048 130.508 125.88 128.94 125.88C127.26 125.88 126.028 127.048 126.028 128.52C126.028 129.336 126.284 130.024 126.908 130.888C125.212 131.64 124.444 132.632 124.444 134.056C124.444 136.008 125.964 137.192 127.98 137.192C129.308 137.192 130.38 136.664 131.292 135.784C131.692 136.2 132.14 136.664 132.636 137.16L134.028 136.52ZM128.94 127.144C129.692 127.144 130.22 127.752 130.22 128.52C130.22 129.368 129.66 129.8 128.3 130.344C127.756 129.64 127.5 129.08 127.5 128.52C127.5 127.672 128.124 127.144 128.94 127.144ZM128.108 135.88C126.972 135.88 126.012 135.176 126.012 133.992C126.012 133.08 126.604 132.392 127.66 131.848C128.348 132.68 129.164 133.576 130.38 134.84C129.692 135.48 128.924 135.88 128.108 135.88ZM144.219 135.512C144.043 135.688 143.723 135.816 143.371 135.816C142.907 135.816 142.523 135.4 142.523 134.824V130.072H144.475V128.728H142.523V126.456H140.971V128.728H139.723V130.072H140.971V134.936C140.971 136.264 141.867 137.192 143.147 137.192C143.739 137.192 144.347 136.968 144.795 136.6L144.219 135.512ZM150.202 135.784C148.778 135.784 147.77 134.792 147.562 133.416H154.074C154.074 130.456 152.618 128.536 150.09 128.536C147.802 128.536 145.962 130.36 145.962 132.84C145.962 135.384 147.914 137.192 150.218 137.192C151.386 137.192 152.826 136.696 153.562 135.912L152.57 134.888C152.074 135.4 151.066 135.784 150.202 135.784ZM150.154 129.944C151.578 129.944 152.362 130.872 152.538 132.152H147.578C147.834 130.808 148.874 129.944 150.154 129.944ZM159.814 137.192C161.046 137.192 162.118 136.68 162.918 135.864L161.846 134.888C161.334 135.464 160.598 135.816 159.83 135.816C158.31 135.816 157.062 134.472 157.062 132.856C157.062 131.256 158.31 129.912 159.814 129.912C160.582 129.912 161.302 130.248 161.798 130.808L162.87 129.816C162.086 129.032 161.014 128.536 159.83 128.536C157.462 128.536 155.462 130.504 155.462 132.856C155.462 135.208 157.462 137.192 159.814 137.192ZM168.821 128.536C167.685 128.536 166.677 129.128 166.181 129.96V125.816H164.613V137H166.181V131.864C166.181 130.792 167.221 129.912 168.469 129.912C169.589 129.912 170.373 130.776 170.373 132.008V137H171.925V131.736C171.925 129.864 170.645 128.536 168.821 128.536ZM178.399 128.536C177.279 128.536 176.271 129.112 175.775 129.928V128.728H174.191V137H175.775V131.64C175.903 130.664 176.895 129.912 178.047 129.912C179.167 129.912 179.951 130.776 179.951 132.008V137H181.503V131.736C181.503 129.864 180.223 128.536 178.399 128.536ZM184.553 127.352C185.065 127.352 185.497 126.904 185.497 126.392C185.497 125.896 185.065 125.448 184.553 125.448C184.009 125.448 183.593 125.896 183.593 126.392C183.593 126.904 184.009 127.352 184.553 127.352ZM183.753 137H185.337V128.728H183.753V137ZM193.997 128.728V130.152C193.357 129.144 192.333 128.536 191.053 128.536C188.877 128.536 187.245 130.328 187.245 132.856C187.245 135.4 188.877 137.192 191.053 137.192C192.333 137.192 193.357 136.584 193.997 135.56V139.752H195.565V128.728H193.997ZM191.437 135.816C189.917 135.816 188.845 134.584 188.845 132.856C188.845 131.128 189.917 129.912 191.437 129.912C192.925 129.912 193.997 131.128 193.997 132.856C193.997 134.584 192.925 135.816 191.437 135.816ZM203.637 128.728V134.088C203.509 135.064 202.517 135.816 201.365 135.816C200.245 135.816 199.461 134.952 199.461 133.72V128.728H197.909V133.992C197.909 135.864 199.189 137.192 201.013 137.192C202.133 137.192 203.141 136.616 203.637 135.8V137H205.221V128.728H203.637ZM211.311 135.784C209.887 135.784 208.879 134.792 208.671 133.416H215.183C215.183 130.456 213.727 128.536 211.199 128.536C208.911 128.536 207.071 130.36 207.071 132.84C207.071 135.384 209.023 137.192 211.327 137.192C212.495 137.192 213.935 136.696 214.671 135.912L213.679 134.888C213.183 135.4 212.175 135.784 211.311 135.784ZM211.263 129.944C212.687 129.944 213.471 130.872 213.647 132.152H208.687C208.943 130.808 209.983 129.944 211.263 129.944ZM220.011 137.192C221.819 137.192 223.147 136.2 223.147 134.632C223.147 132.984 221.691 132.536 220.331 132.136C218.939 131.704 218.427 131.512 218.427 130.872C218.427 130.248 219.067 129.896 219.883 129.896C220.603 129.896 221.435 130.168 222.235 130.664L222.939 129.496C222.043 128.904 220.955 128.536 219.883 128.536C218.123 128.536 216.859 129.528 216.875 131.048C216.875 132.392 217.819 132.936 219.723 133.464C220.747 133.752 221.595 133.992 221.595 134.76C221.595 135.4 220.955 135.832 220.027 135.832C219.051 135.832 218.107 135.464 217.227 134.824L216.475 135.96C217.467 136.76 218.795 137.192 220.011 137.192ZM225.788 139.192C226.812 138.024 227.18 137.336 227.18 136.584C227.18 135.704 226.732 135.064 226.028 135.064C225.42 135.064 224.956 135.56 224.956 136.12C224.956 136.712 225.42 137.192 225.996 137.192C225.868 137.688 225.58 138.2 225.116 138.68L225.788 139.192ZM237.877 137.192C240.229 137.192 242.213 135.208 242.213 132.856C242.213 130.504 240.229 128.536 237.877 128.536C235.509 128.536 233.509 130.504 233.509 132.856C233.509 135.208 235.509 137.192 237.877 137.192ZM237.877 135.816C236.357 135.816 235.093 134.472 235.093 132.856C235.093 131.256 236.357 129.912 237.877 129.912C239.365 129.912 240.629 131.256 240.629 132.856C240.629 134.472 239.365 135.816 237.877 135.816ZM248.658 128.536C247.378 128.536 246.354 129.144 245.714 130.152V125.816H244.146V137H245.714V135.56C246.354 136.584 247.378 137.192 248.658 137.192C250.834 137.192 252.466 135.4 252.466 132.856C252.466 130.328 250.834 128.536 248.658 128.536ZM248.274 135.816C246.786 135.816 245.714 134.584 245.714 132.856C245.714 131.128 246.786 129.912 248.274 129.912C249.794 129.912 250.866 131.128 250.866 132.856C250.866 134.584 249.794 135.816 248.274 135.816ZM258.251 135.512C258.075 135.688 257.755 135.816 257.403 135.816C256.939 135.816 256.555 135.4 256.555 134.824V130.072H258.507V128.728H256.555V126.456H255.003V128.728H253.755V130.072H255.003V134.936C255.003 136.264 255.899 137.192 257.179 137.192C257.771 137.192 258.379 136.968 258.827 136.6L258.251 135.512ZM263.913 128.536C263.001 128.536 261.961 128.776 260.777 129.368L261.353 130.536C262.073 130.168 262.873 129.848 263.689 129.848C265.337 129.848 265.817 130.952 265.817 131.992V132.248C265.017 131.976 264.137 131.8 263.321 131.8C261.497 131.8 260.009 132.904 260.009 134.552C260.009 136.168 261.305 137.192 263.065 137.192C264.073 137.192 265.209 136.728 265.817 135.864V137H267.369V131.992C267.369 129.944 266.137 128.536 263.913 128.536ZM263.369 135.944C262.329 135.944 261.529 135.4 261.529 134.504C261.529 133.608 262.457 132.984 263.561 132.984C264.377 132.984 265.145 133.096 265.817 133.304V134.408C265.545 135.432 264.393 135.944 263.369 135.944ZM270.444 127.352C270.956 127.352 271.388 126.904 271.388 126.392C271.388 125.896 270.956 125.448 270.444 125.448C269.9 125.448 269.484 125.896 269.484 126.392C269.484 126.904 269.9 127.352 270.444 127.352ZM269.644 137H271.228V128.728H269.644V137ZM277.727 128.536C276.607 128.536 275.599 129.112 275.103 129.928V128.728H273.519V137H275.103V131.64C275.231 130.664 276.223 129.912 277.375 129.912C278.495 129.912 279.279 130.776 279.279 132.008V137H280.831V131.736C280.831 129.864 279.551 128.536 277.727 128.536ZM55.3081 161.192C57.1161 161.192 58.4441 160.2 58.4441 158.632C58.4441 156.984 56.9881 156.536 55.6281 156.136C54.2361 155.704 53.7241 155.512 53.7241 154.872C53.7241 154.248 54.3641 153.896 55.1801 153.896C55.9001 153.896 56.7321 154.168 57.5321 154.664L58.2361 153.496C57.3401 152.904 56.2521 152.536 55.1801 152.536C53.4201 152.536 52.1561 153.528 52.1721 155.048C52.1721 156.392 53.1161 156.936 55.0201 157.464C56.0441 157.752 56.8921 157.992 56.8921 158.76C56.8921 159.4 56.2521 159.832 55.3241 159.832C54.3481 159.832 53.4041 159.464 52.5241 158.824L51.7721 159.96C52.7641 160.76 54.0921 161.192 55.3081 161.192ZM61.0688 151.352C61.5808 151.352 62.0128 150.904 62.0128 150.392C62.0128 149.896 61.5808 149.448 61.0688 149.448C60.5248 149.448 60.1088 149.896 60.1088 150.392C60.1088 150.904 60.5248 151.352 61.0688 151.352ZM60.2688 161H61.8528V152.728H60.2688V161ZM73.3922 152.536C72.1442 152.536 71.0882 153.176 70.7042 154.2C70.2242 153.176 69.2482 152.536 68.0482 152.536C66.9922 152.536 66.1282 153.064 65.7122 153.88V152.728H64.1282V161H65.7122V155.832C65.7122 154.696 66.5442 153.912 67.7282 153.912C68.7682 153.912 69.4882 154.76 69.4882 155.976V161H71.0402V155.832C71.0402 154.696 71.8722 153.912 73.0562 153.912C74.0962 153.912 74.8162 154.76 74.8162 155.976V161H76.3682V155.736C76.3682 153.864 75.1202 152.536 73.3922 152.536ZM83.2362 152.536C81.9562 152.536 80.9322 153.144 80.2922 154.152V152.728H78.7242V163.752H80.2922V159.56C80.9322 160.584 81.9562 161.192 83.2362 161.192C85.4122 161.192 87.0442 159.4 87.0442 156.856C87.0442 154.328 85.4122 152.536 83.2362 152.536ZM82.8522 159.816C81.3642 159.816 80.2922 158.584 80.2922 156.856C80.2922 155.128 81.3642 153.912 82.8522 153.912C84.3722 153.912 85.4442 155.128 85.4442 156.856C85.4442 158.584 84.3722 159.816 82.8522 159.816ZM88.9567 161H90.5247V149.816H88.9567V161ZM93.6157 151.352C94.1277 151.352 94.5597 150.904 94.5597 150.392C94.5597 149.896 94.1277 149.448 93.6157 149.448C93.0717 149.448 92.6557 149.896 92.6557 150.392C92.6557 150.904 93.0717 151.352 93.6157 151.352ZM92.8157 161H94.3997V152.728H92.8157V161ZM98.8671 151.816C98.8671 151.24 99.2511 150.824 99.7151 150.824C100.067 150.824 100.387 150.952 100.563 151.128L101.139 150.072C100.691 149.704 100.083 149.48 99.4911 149.48C98.2111 149.48 97.3151 150.408 97.3151 151.736V152.728H96.0671V154.072H97.3151V161H98.8671V154.072H100.819V152.728H98.8671V151.816ZM103.241 151.352C103.753 151.352 104.185 150.904 104.185 150.392C104.185 149.896 103.753 149.448 103.241 149.448C102.697 149.448 102.281 149.896 102.281 150.392C102.281 150.904 102.697 151.352 103.241 151.352ZM102.441 161H104.025V152.728H102.441V161ZM110.108 159.784C108.684 159.784 107.676 158.792 107.468 157.416H113.98C113.98 154.456 112.524 152.536 109.996 152.536C107.708 152.536 105.868 154.36 105.868 156.84C105.868 159.384 107.82 161.192 110.124 161.192C111.292 161.192 112.732 160.696 113.468 159.912L112.476 158.888C111.98 159.4 110.972 159.784 110.108 159.784ZM110.06 153.944C111.484 153.944 112.268 154.872 112.444 156.152H107.484C107.74 154.808 108.78 153.944 110.06 153.944ZM122.184 149.816V154.152C121.544 153.144 120.52 152.536 119.24 152.536C117.064 152.536 115.432 154.328 115.432 156.856C115.432 159.4 117.064 161.192 119.24 161.192C120.52 161.192 121.544 160.584 122.184 159.56V161H123.752V149.816H122.184ZM119.624 159.816C118.104 159.816 117.032 158.584 117.032 156.856C117.032 155.128 118.104 153.912 119.624 153.912C121.112 153.912 122.184 155.128 122.184 156.856C122.184 158.584 121.112 159.816 119.624 159.816ZM139.731 160.52L137.939 158.68C138.499 157.896 138.995 156.984 139.459 155.976L138.195 155.4C137.875 156.248 137.475 157.032 137.011 157.704C136.115 156.776 135.427 156.008 134.771 155.256C136.403 154.552 137.395 153.88 137.395 152.504C137.395 151.048 136.211 149.88 134.643 149.88C132.963 149.88 131.731 151.048 131.731 152.52C131.731 153.336 131.987 154.024 132.611 154.888C130.915 155.64 130.147 156.632 130.147 158.056C130.147 160.008 131.667 161.192 133.683 161.192C135.011 161.192 136.083 160.664 136.995 159.784C137.395 160.2 137.843 160.664 138.339 161.16L139.731 160.52ZM134.643 151.144C135.395 151.144 135.923 151.752 135.923 152.52C135.923 153.368 135.363 153.8 134.003 154.344C133.459 153.64 133.203 153.08 133.203 152.52C133.203 151.672 133.827 151.144 134.643 151.144ZM133.811 159.88C132.675 159.88 131.715 159.176 131.715 157.992C131.715 157.08 132.307 156.392 133.363 155.848C134.051 156.68 134.867 157.576 136.083 158.84C135.395 159.48 134.627 159.88 133.811 159.88ZM149.842 159.784C148.418 159.784 147.41 158.792 147.202 157.416H153.714C153.714 154.456 152.258 152.536 149.73 152.536C147.442 152.536 145.602 154.36 145.602 156.84C145.602 159.384 147.554 161.192 149.858 161.192C151.026 161.192 152.466 160.696 153.202 159.912L152.21 158.888C151.714 159.4 150.706 159.784 149.842 159.784ZM149.794 153.944C151.218 153.944 152.002 154.872 152.178 156.152H147.218C147.474 154.808 148.514 153.944 149.794 153.944ZM159.758 152.536C158.638 152.536 157.63 153.112 157.134 153.928V152.728H155.55V161H157.134V155.64C157.262 154.664 158.254 153.912 159.406 153.912C160.526 153.912 161.31 154.776 161.31 156.008V161H162.862V155.736C162.862 153.864 161.582 152.536 159.758 152.536ZM166.793 154.312V152.728H165.209V161H166.793V156.296C166.937 154.856 168.153 153.912 169.865 153.912V152.536C168.441 152.536 167.321 153.224 166.793 154.312ZM172.194 151.352C172.706 151.352 173.138 150.904 173.138 150.392C173.138 149.896 172.706 149.448 172.194 149.448C171.65 149.448 171.234 149.896 171.234 150.392C171.234 150.904 171.65 151.352 172.194 151.352ZM171.394 161H172.978V152.728H171.394V161ZM179.173 161.192C180.405 161.192 181.477 160.68 182.277 159.864L181.205 158.888C180.693 159.464 179.957 159.816 179.189 159.816C177.669 159.816 176.421 158.472 176.421 156.856C176.421 155.256 177.669 153.912 179.173 153.912C179.941 153.912 180.661 154.248 181.157 154.808L182.229 153.816C181.445 153.032 180.373 152.536 179.189 152.536C176.821 152.536 174.821 154.504 174.821 156.856C174.821 159.208 176.821 161.192 179.173 161.192ZM188.18 152.536C187.044 152.536 186.036 153.128 185.54 153.96V149.816H183.972V161H185.54V155.864C185.54 154.792 186.58 153.912 187.828 153.912C188.948 153.912 189.732 154.776 189.732 156.008V161H191.284V155.736C191.284 153.864 190.004 152.536 188.18 152.536ZM197.342 159.784C195.918 159.784 194.91 158.792 194.702 157.416H201.214C201.214 154.456 199.758 152.536 197.23 152.536C194.942 152.536 193.102 154.36 193.102 156.84C193.102 159.384 195.054 161.192 197.358 161.192C198.526 161.192 199.966 160.696 200.702 159.912L199.71 158.888C199.214 159.4 198.206 159.784 197.342 159.784ZM197.294 153.944C198.718 153.944 199.502 154.872 199.678 156.152H194.718C194.974 154.808 196.014 153.944 197.294 153.944ZM209.418 149.816V154.152C208.778 153.144 207.754 152.536 206.474 152.536C204.298 152.536 202.666 154.328 202.666 156.856C202.666 159.4 204.298 161.192 206.474 161.192C207.754 161.192 208.778 160.584 209.418 159.56V161H210.986V149.816H209.418ZM206.858 159.816C205.338 159.816 204.266 158.584 204.266 156.856C204.266 155.128 205.338 153.912 206.858 153.912C208.346 153.912 209.418 155.128 209.418 156.856C209.418 158.584 208.346 159.816 206.858 159.816ZM224.309 149.816V154.152C223.669 153.144 222.645 152.536 221.365 152.536C219.189 152.536 217.557 154.328 217.557 156.856C217.557 159.4 219.189 161.192 221.365 161.192C222.645 161.192 223.669 160.584 224.309 159.56V161H225.877V149.816H224.309ZM221.749 159.816C220.229 159.816 219.157 158.584 219.157 156.856C219.157 155.128 220.229 153.912 221.749 153.912C223.237 153.912 224.309 155.128 224.309 156.856C224.309 158.584 223.237 159.816 221.749 159.816ZM231.726 152.536C230.814 152.536 229.774 152.776 228.59 153.368L229.166 154.536C229.886 154.168 230.686 153.848 231.502 153.848C233.15 153.848 233.63 154.952 233.63 155.992V156.248C232.83 155.976 231.95 155.8 231.134 155.8C229.31 155.8 227.822 156.904 227.822 158.552C227.822 160.168 229.118 161.192 230.878 161.192C231.886 161.192 233.022 160.728 233.63 159.864V161H235.182V155.992C235.182 153.944 233.95 152.536 231.726 152.536ZM231.182 159.944C230.142 159.944 229.342 159.4 229.342 158.504C229.342 157.608 230.27 156.984 231.374 156.984C232.19 156.984 232.958 157.096 233.63 157.304V158.408C233.358 159.432 232.206 159.944 231.182 159.944ZM241.344 159.512C241.168 159.688 240.848 159.816 240.496 159.816C240.032 159.816 239.648 159.4 239.648 158.824V154.072H241.6V152.728H239.648V150.456H238.096V152.728H236.848V154.072H238.096V158.936C238.096 160.264 238.992 161.192 240.272 161.192C240.864 161.192 241.472 160.968 241.92 160.6L241.344 159.512ZM247.007 152.536C246.095 152.536 245.055 152.776 243.871 153.368L244.447 154.536C245.167 154.168 245.967 153.848 246.783 153.848C248.431 153.848 248.911 154.952 248.911 155.992V156.248C248.111 155.976 247.231 155.8 246.415 155.8C244.591 155.8 243.103 156.904 243.103 158.552C243.103 160.168 244.399 161.192 246.159 161.192C247.167 161.192 248.303 160.728 248.911 159.864V161H250.463V155.992C250.463 153.944 249.231 152.536 247.007 152.536ZM246.463 159.944C245.423 159.944 244.623 159.4 244.623 158.504C244.623 157.608 245.551 156.984 246.655 156.984C247.471 156.984 248.239 157.096 248.911 157.304V158.408C248.639 159.432 247.487 159.944 246.463 159.944ZM253.746 161.192C254.322 161.192 254.786 160.696 254.786 160.104C254.786 159.56 254.322 159.064 253.746 159.064C253.138 159.064 252.674 159.56 252.674 160.104C252.674 160.696 253.138 161.192 253.746 161.192Z" fill="#8989A2"/>
</svg>
