<svg width="307" height="168" viewBox="0 0 307 168" fill="none" xmlns="http://www.w3.org/2000/svg">
<path d="M153.5 40C164.546 40 173.5 31.0457 173.5 20C173.5 8.9543 164.546 0 153.5 0C142.454 0 133.5 8.9543 133.5 20C133.5 31.0457 142.454 40 153.5 40Z" fill="#E6F7FF"/>
<path d="M155.124 20.541H151.876C151.805 20.541 151.735 20.555 151.669 20.5822C151.603 20.6094 151.544 20.6492 151.493 20.6995C151.443 20.7497 151.403 20.8093 151.376 20.875C151.349 20.9406 151.335 21.011 151.335 21.082V28.118C151.335 28.1891 151.349 28.2594 151.376 28.325C151.403 28.3907 151.443 28.4503 151.493 28.5006C151.544 28.5508 151.603 28.5906 151.669 28.6178C151.735 28.645 151.805 28.659 151.876 28.659H155.124C155.267 28.659 155.405 28.602 155.507 28.5006C155.608 28.3991 155.665 28.2615 155.665 28.118V21.082C155.665 20.9385 155.608 20.8009 155.507 20.6995C155.405 20.598 155.267 20.541 155.124 20.541Z" fill="#1890FF"/>
<path d="M148.629 23.789H145.381C145.238 23.789 145.1 23.846 144.998 23.9475C144.897 24.0489 144.84 24.1865 144.84 24.33V28.119C144.84 28.2625 144.897 28.4001 144.998 28.5015C145.1 28.603 145.238 28.66 145.381 28.66H148.629C148.772 28.66 148.91 28.603 149.012 28.5015C149.113 28.4001 149.17 28.2625 149.17 28.119V24.33C149.17 24.1865 149.113 24.0489 149.012 23.9475C148.91 23.846 148.772 23.789 148.629 23.789Z" fill="#1890FF"/>
<path d="M161.619 17.294H158.371C158.3 17.294 158.23 17.308 158.164 17.3352C158.098 17.3624 158.039 17.4022 157.988 17.4525C157.938 17.5027 157.898 17.5623 157.871 17.628C157.844 17.6936 157.83 17.764 157.83 17.835V28.119C157.83 28.1901 157.844 28.2604 157.871 28.326C157.898 28.3917 157.938 28.4513 157.988 28.5016C158.039 28.5518 158.098 28.5916 158.164 28.6188C158.23 28.646 158.3 28.66 158.371 28.66H161.619C161.762 28.66 161.9 28.603 162.002 28.5016C162.103 28.4001 162.16 28.2625 162.16 28.119V17.835C162.16 17.6915 162.103 17.5539 162.002 17.4525C161.9 17.351 161.762 17.294 161.619 17.294Z" fill="#1890FF"/>
<path d="M153.5 17.84C153.571 17.8401 153.642 17.826 153.707 17.7988C153.773 17.7715 153.833 17.7315 153.883 17.681L158.372 13.188V15.67H159.455V11.881C159.455 11.8098 159.441 11.7393 159.414 11.6735C159.386 11.6078 159.346 11.548 159.296 11.4978C159.245 11.4475 159.186 11.4077 159.12 11.3806C159.054 11.3536 158.983 11.3398 158.912 11.34H155.124V12.423H157.606L153.5 16.529L151.177 14.205C151.076 14.1036 150.938 14.0466 150.794 14.0466C150.651 14.0466 150.513 14.1036 150.412 14.205L147.705 16.911L148.47 17.676L150.794 15.353L153.118 17.677C153.168 17.7281 153.227 17.7687 153.293 17.7967C153.358 17.8247 153.429 17.8394 153.5 17.84Z" fill="#1890FF"/>
<path d="M59.1993 62.008L56.0473 69.752L52.8953 62.008H50.2393L54.7193 73H57.3593L61.8393 62.008H59.1993ZM66.1731 64.536C65.0211 64.536 63.8851 64.856 62.7171 65.448L63.5011 67C64.1571 66.664 64.8771 66.408 65.6451 66.408C67.0051 66.408 67.5491 67.176 67.5491 68.056V68.216C66.8451 67.944 66.1091 67.8 65.4371 67.8C63.5171 67.8 61.9971 68.92 61.9971 70.552C61.9971 72.136 63.3571 73.192 65.1171 73.192C66.0131 73.192 66.9571 72.84 67.5491 72.168V73H69.8051V68.056C69.8051 65.896 68.3331 64.536 66.1731 64.536ZM65.6451 71.576C64.8451 71.576 64.2531 71.16 64.2531 70.488C64.2531 69.816 64.9251 69.32 65.7731 69.32C66.4131 69.32 67.0211 69.432 67.5491 69.624V70.392C67.3891 71.16 66.5411 71.576 65.6451 71.576ZM71.774 73H74.11V61.816H71.774V73ZM81.637 64.728V69.672L81.621 69.624C81.621 70.52 80.869 71.224 79.893 71.224C78.965 71.224 78.325 70.52 78.325 69.496V64.728H76.069V69.992C76.069 71.864 77.349 73.192 79.141 73.192C80.213 73.192 81.141 72.712 81.637 71.96V73H83.973V64.728H81.637ZM89.6731 64.536C88.5211 64.536 87.3851 64.856 86.2171 65.448L87.0011 67C87.6571 66.664 88.3771 66.408 89.1451 66.408C90.5051 66.408 91.0491 67.176 91.0491 68.056V68.216C90.3451 67.944 89.6091 67.8 88.9371 67.8C87.0171 67.8 85.4971 68.92 85.4971 70.552C85.4971 72.136 86.8571 73.192 88.6171 73.192C89.5131 73.192 90.4571 72.84 91.0491 72.168V73H93.3051V68.056C93.3051 65.896 91.8331 64.536 89.6731 64.536ZM89.1451 71.576C88.3451 71.576 87.7531 71.16 87.7531 70.488C87.7531 69.816 88.4251 69.32 89.2731 69.32C89.9131 69.32 90.5211 69.432 91.0491 69.624V70.392C90.8891 71.16 90.0411 71.576 89.1451 71.576ZM100.378 64.536C99.226 64.536 98.266 65.032 97.61 65.88V61.816H95.274V73H97.61V71.832C98.266 72.696 99.226 73.192 100.378 73.192C102.586 73.192 104.186 71.4 104.186 68.856C104.186 66.328 102.586 64.536 100.378 64.536ZM99.706 71.224C98.57 71.224 97.738 70.392 97.61 69.176V68.536C97.738 67.336 98.57 66.504 99.706 66.504C101.002 66.504 101.914 67.48 101.914 68.856C101.914 70.248 101.002 71.224 99.706 71.224ZM105.837 73H108.173V61.816H105.837V73ZM114.116 71.128C113.14 71.128 112.42 70.52 112.148 69.624H118.116C118.116 66.504 116.596 64.536 114.004 64.536C111.588 64.536 109.748 66.344 109.748 68.84C109.748 71.384 111.668 73.192 114.132 73.192C115.348 73.192 116.772 72.68 117.508 71.912L116.02 70.392C115.572 70.824 114.772 71.128 114.116 71.128ZM114.1 66.6C115.044 66.6 115.652 67.128 115.876 67.944H112.18C112.484 67.112 113.22 66.6 114.1 66.6ZM129.269 64.536C128.117 64.536 127.157 65.032 126.501 65.88V61.816H124.165V73H126.501V71.832C127.157 72.696 128.117 73.192 129.269 73.192C131.477 73.192 133.077 71.4 133.077 68.856C133.077 66.328 131.477 64.536 129.269 64.536ZM128.597 71.224C127.461 71.224 126.629 70.392 126.501 69.176V68.536C126.629 67.336 127.461 66.504 128.597 66.504C129.893 66.504 130.805 67.48 130.805 68.856C130.805 70.248 129.893 71.224 128.597 71.224ZM140.215 64.728V69.672L140.199 69.624C140.199 70.52 139.447 71.224 138.471 71.224C137.543 71.224 136.903 70.52 136.903 69.496V64.728H134.647V69.992C134.647 71.864 135.927 73.192 137.719 73.192C138.791 73.192 139.719 72.712 140.215 71.96V73H142.551V64.728H140.215ZM147.659 73.192C149.691 73.192 151.019 72.152 151.019 70.52C151.019 68.712 149.435 68.232 148.011 67.864C146.891 67.56 146.555 67.432 146.555 66.984C146.555 66.696 146.955 66.488 147.531 66.488C148.235 66.488 149.099 66.76 149.851 67.224L150.795 65.56C149.883 64.952 148.715 64.536 147.531 64.536C145.579 64.536 144.283 65.656 144.299 67.224C144.315 68.856 145.627 69.32 147.323 69.736C148.171 69.96 148.779 70.12 148.779 70.632C148.779 71 148.331 71.256 147.707 71.256C146.603 71.256 145.675 70.856 144.939 70.328L143.931 71.944C144.923 72.744 146.331 73.192 147.659 73.192ZM153.755 63.592C154.443 63.592 155.003 63.016 155.003 62.312C155.003 61.656 154.443 61.064 153.755 61.064C153.035 61.064 152.475 61.656 152.475 62.312C152.475 63.016 153.035 63.592 153.755 63.592ZM152.571 73H154.907V64.728H152.571V73ZM161.73 64.536C160.658 64.536 159.73 65.016 159.234 65.768V64.728H156.898V73H159.234V68.056L159.25 68.104C159.25 67.208 160.002 66.504 160.978 66.504C161.906 66.504 162.546 67.208 162.546 68.232V73H164.802V67.736C164.802 65.864 163.522 64.536 161.73 64.536ZM170.678 71.128C169.702 71.128 168.982 70.52 168.71 69.624H174.678C174.678 66.504 173.158 64.536 170.566 64.536C168.15 64.536 166.31 66.344 166.31 68.84C166.31 71.384 168.23 73.192 170.694 73.192C171.91 73.192 173.334 72.68 174.07 71.912L172.582 70.392C172.134 70.824 171.334 71.128 170.678 71.128ZM170.662 66.6C171.606 66.6 172.214 67.128 172.438 67.944H168.742C169.046 67.112 169.782 66.6 170.662 66.6ZM179.362 73.192C181.394 73.192 182.722 72.152 182.722 70.52C182.722 68.712 181.138 68.232 179.714 67.864C178.594 67.56 178.258 67.432 178.258 66.984C178.258 66.696 178.658 66.488 179.234 66.488C179.938 66.488 180.802 66.76 181.554 67.224L182.498 65.56C181.586 64.952 180.418 64.536 179.234 64.536C177.282 64.536 175.986 65.656 176.002 67.224C176.018 68.856 177.33 69.32 179.026 69.736C179.874 69.96 180.482 70.12 180.482 70.632C180.482 71 180.034 71.256 179.41 71.256C178.306 71.256 177.378 70.856 176.642 70.328L175.634 71.944C176.626 72.744 178.034 73.192 179.362 73.192ZM187.394 73.192C189.426 73.192 190.754 72.152 190.754 70.52C190.754 68.712 189.17 68.232 187.746 67.864C186.626 67.56 186.29 67.432 186.29 66.984C186.29 66.696 186.69 66.488 187.266 66.488C187.97 66.488 188.834 66.76 189.586 67.224L190.53 65.56C189.618 64.952 188.45 64.536 187.266 64.536C185.314 64.536 184.018 65.656 184.034 67.224C184.05 68.856 185.362 69.32 187.058 69.736C187.906 69.96 188.514 70.12 188.514 70.632C188.514 71 188.066 71.256 187.442 71.256C186.338 71.256 185.41 70.856 184.674 70.328L183.666 71.944C184.658 72.744 186.066 73.192 187.394 73.192ZM197.958 63.592C198.646 63.592 199.206 63.016 199.206 62.312C199.206 61.656 198.646 61.064 197.958 61.064C197.238 61.064 196.678 61.656 196.678 62.312C196.678 63.016 197.238 63.592 197.958 63.592ZM196.774 73H199.11V64.728H196.774V73ZM205.933 64.536C204.861 64.536 203.933 65.016 203.437 65.768V64.728H201.101V73H203.437V68.056L203.453 68.104C203.453 67.208 204.205 66.504 205.181 66.504C206.109 66.504 206.749 67.208 206.749 68.232V73H209.005V67.736C209.005 65.864 207.725 64.536 205.933 64.536ZM214.081 73.192C216.113 73.192 217.441 72.152 217.441 70.52C217.441 68.712 215.857 68.232 214.433 67.864C213.313 67.56 212.977 67.432 212.977 66.984C212.977 66.696 213.377 66.488 213.953 66.488C214.657 66.488 215.521 66.76 216.273 67.224L217.217 65.56C216.305 64.952 215.137 64.536 213.953 64.536C212.001 64.536 210.705 65.656 210.721 67.224C210.737 68.856 212.049 69.32 213.745 69.736C214.593 69.96 215.201 70.12 215.201 70.632C215.201 71 214.753 71.256 214.129 71.256C213.025 71.256 212.097 70.856 211.361 70.328L210.353 71.944C211.345 72.744 212.753 73.192 214.081 73.192ZM220.176 63.592C220.864 63.592 221.424 63.016 221.424 62.312C221.424 61.656 220.864 61.064 220.176 61.064C219.456 61.064 218.896 61.656 218.896 62.312C218.896 63.016 219.456 63.592 220.176 63.592ZM218.992 73H221.328V64.728H218.992V73ZM229.352 64.728V65.848C228.792 65.064 227.736 64.536 226.616 64.536C224.536 64.536 222.952 66.152 222.952 68.456C222.952 70.76 224.536 72.392 226.616 72.392C227.704 72.392 228.696 71.912 229.352 71.112V72.024C229.352 73.096 228.392 73.784 226.888 73.784C225.928 73.784 224.968 73.48 224.424 73L223.608 74.648C224.424 75.288 225.8 75.752 227.256 75.752C229.864 75.752 231.704 74.248 231.704 72.12V64.728H229.352ZM227.352 70.424C226.184 70.424 225.352 69.608 225.352 68.456C225.352 67.304 226.184 66.504 227.352 66.504C228.52 66.504 229.352 67.304 229.352 68.456C229.352 69.608 228.52 70.424 227.352 70.424ZM238.542 64.536C237.486 64.536 236.574 65.016 236.062 65.736V61.816H233.726V73H236.062V68.104C236.062 67.208 236.814 66.504 237.79 66.504C238.718 66.504 239.358 67.208 239.358 68.232V73H241.614V67.736C241.614 65.864 240.334 64.536 238.542 64.536ZM247.939 70.952C247.779 71.112 247.459 71.224 247.139 71.224C246.707 71.224 246.355 70.84 246.355 70.296V66.616H248.147V64.728H246.355V62.456H244.115V64.728H242.979V66.616H244.115V70.664C244.115 72.152 245.139 73.192 246.595 73.192C247.266 73.192 248.019 72.904 248.499 72.472L247.939 70.952ZM253.066 73.192C255.098 73.192 256.426 72.152 256.426 70.52C256.426 68.712 254.842 68.232 253.418 67.864C252.298 67.56 251.962 67.432 251.962 66.984C251.962 66.696 252.362 66.488 252.938 66.488C253.641 66.488 254.506 66.76 255.258 67.224L256.202 65.56C255.29 64.952 254.122 64.536 252.938 64.536C250.986 64.536 249.69 65.656 249.706 67.224C249.722 68.856 251.034 69.32 252.73 69.736C253.578 69.96 254.186 70.12 254.186 70.632C254.186 71 253.738 71.256 253.114 71.256C252.01 71.256 251.082 70.856 250.346 70.328L249.338 71.944C250.33 72.744 251.738 73.192 253.066 73.192Z" fill="#160637"/>
<path d="M9.21438 113.192C10.7824 113.192 12.2224 112.52 13.2624 111.464L12.1264 110.376C11.3904 111.176 10.3504 111.704 9.21438 111.704C7.02238 111.704 5.16638 109.784 5.16638 107.496C5.16638 105.224 7.02238 103.304 9.21438 103.304C10.3504 103.304 11.3904 103.832 12.1264 104.632L13.2624 103.544C12.2224 102.472 10.7824 101.816 9.21438 101.816C6.12638 101.816 3.50238 104.408 3.50238 107.496C3.50238 110.584 6.12638 113.192 9.21438 113.192ZM18.7595 113.192C21.1115 113.192 23.0955 111.208 23.0955 108.856C23.0955 106.504 21.1115 104.536 18.7595 104.536C16.3915 104.536 14.3915 106.504 14.3915 108.856C14.3915 111.208 16.3915 113.192 18.7595 113.192ZM18.7595 111.816C17.2395 111.816 15.9755 110.472 15.9755 108.856C15.9755 107.256 17.2395 105.912 18.7595 105.912C20.2475 105.912 21.5115 107.256 21.5115 108.856C21.5115 110.472 20.2475 111.816 18.7595 111.816ZM24.9489 113H26.5169V101.816H24.9489V113ZM28.8239 113H30.3919V101.816H28.8239V113ZM36.4909 111.784C35.0669 111.784 34.0589 110.792 33.8509 109.416H40.3629C40.3629 106.456 38.9069 104.536 36.3789 104.536C34.0909 104.536 32.2509 106.36 32.2509 108.84C32.2509 111.384 34.2029 113.192 36.5069 113.192C37.6749 113.192 39.1149 112.696 39.8509 111.912L38.8589 110.888C38.3629 111.4 37.3549 111.784 36.4909 111.784ZM36.4429 105.944C37.8669 105.944 38.6509 106.872 38.8269 108.152H33.8669C34.1229 106.808 35.1629 105.944 36.4429 105.944ZM46.1029 113.192C47.3349 113.192 48.4069 112.68 49.2069 111.864L48.1349 110.888C47.6229 111.464 46.8869 111.816 46.1189 111.816C44.5989 111.816 43.3509 110.472 43.3509 108.856C43.3509 107.256 44.5989 105.912 46.1029 105.912C46.8709 105.912 47.5909 106.248 48.0869 106.808L49.1589 105.816C48.3749 105.032 47.3029 104.536 46.1189 104.536C43.7509 104.536 41.7509 106.504 41.7509 108.856C41.7509 111.208 43.7509 113.192 46.1029 113.192ZM54.774 111.512C54.598 111.688 54.278 111.816 53.926 111.816C53.462 111.816 53.078 111.4 53.078 110.824V106.072H55.03V104.728H53.078V102.456H51.526V104.728H50.278V106.072H51.526V110.936C51.526 112.264 52.422 113.192 53.702 113.192C54.294 113.192 54.902 112.968 55.35 112.6L54.774 111.512ZM66.1346 104.536C64.8546 104.536 63.8306 105.144 63.1906 106.152V104.728H61.6226V115.752H63.1906V111.56C63.8306 112.584 64.8546 113.192 66.1346 113.192C68.3106 113.192 69.9426 111.4 69.9426 108.856C69.9426 106.328 68.3106 104.536 66.1346 104.536ZM65.7506 111.816C64.2626 111.816 63.1906 110.584 63.1906 108.856C63.1906 107.128 64.2626 105.912 65.7506 105.912C67.2706 105.912 68.3426 107.128 68.3426 108.856C68.3426 110.584 67.2706 111.816 65.7506 111.816ZM73.5191 106.312V104.728H71.9351V113H73.5191V108.296C73.6631 106.856 74.8791 105.912 76.5911 105.912V104.536C75.1671 104.536 74.0471 105.224 73.5191 106.312ZM81.8064 113.192C84.1584 113.192 86.1424 111.208 86.1424 108.856C86.1424 106.504 84.1584 104.536 81.8064 104.536C79.4384 104.536 77.4384 106.504 77.4384 108.856C77.4384 111.208 79.4384 113.192 81.8064 113.192ZM81.8064 111.816C80.2864 111.816 79.0224 110.472 79.0224 108.856C79.0224 107.256 80.2864 105.912 81.8064 105.912C83.2944 105.912 84.5584 107.256 84.5584 108.856C84.5584 110.472 83.2944 111.816 81.8064 111.816ZM91.8998 113.192C93.1318 113.192 94.2038 112.68 95.0038 111.864L93.9318 110.888C93.4198 111.464 92.6838 111.816 91.9158 111.816C90.3958 111.816 89.1478 110.472 89.1478 108.856C89.1478 107.256 90.3958 105.912 91.8998 105.912C92.6678 105.912 93.3878 106.248 93.8838 106.808L94.9558 105.816C94.1718 105.032 93.0998 104.536 91.9158 104.536C89.5478 104.536 87.5478 106.504 87.5478 108.856C87.5478 111.208 89.5478 113.192 91.8998 113.192ZM100.491 111.784C99.0669 111.784 98.0589 110.792 97.8509 109.416H104.363C104.363 106.456 102.907 104.536 100.379 104.536C98.0909 104.536 96.2509 106.36 96.2509 108.84C96.2509 111.384 98.2029 113.192 100.507 113.192C101.675 113.192 103.115 112.696 103.851 111.912L102.859 110.888C102.363 111.4 101.355 111.784 100.491 111.784ZM100.443 105.944C101.867 105.944 102.651 106.872 102.827 108.152H97.8669C98.1229 106.808 99.1629 105.944 100.443 105.944ZM109.191 113.192C110.999 113.192 112.327 112.2 112.327 110.632C112.327 108.984 110.871 108.536 109.511 108.136C108.119 107.704 107.607 107.512 107.607 106.872C107.607 106.248 108.247 105.896 109.063 105.896C109.783 105.896 110.615 106.168 111.415 106.664L112.119 105.496C111.223 104.904 110.135 104.536 109.063 104.536C107.303 104.536 106.039 105.528 106.055 107.048C106.055 108.392 106.999 108.936 108.903 109.464C109.927 109.752 110.775 109.992 110.775 110.76C110.775 111.4 110.135 111.832 109.207 111.832C108.231 111.832 107.287 111.464 106.407 110.824L105.655 111.96C106.647 112.76 107.975 113.192 109.191 113.192ZM117.16 113.192C118.968 113.192 120.296 112.2 120.296 110.632C120.296 108.984 118.84 108.536 117.48 108.136C116.088 107.704 115.576 107.512 115.576 106.872C115.576 106.248 116.216 105.896 117.032 105.896C117.752 105.896 118.584 106.168 119.384 106.664L120.088 105.496C119.192 104.904 118.104 104.536 117.032 104.536C115.272 104.536 114.008 105.528 114.024 107.048C114.024 108.392 114.968 108.936 116.872 109.464C117.896 109.752 118.744 109.992 118.744 110.76C118.744 111.4 118.104 111.832 117.176 111.832C116.2 111.832 115.256 111.464 114.376 110.824L113.624 111.96C114.616 112.76 115.944 113.192 117.16 113.192ZM125.928 111.784C124.504 111.784 123.496 110.792 123.288 109.416H129.8C129.8 106.456 128.344 104.536 125.816 104.536C123.528 104.536 121.688 106.36 121.688 108.84C121.688 111.384 123.64 113.192 125.944 113.192C127.112 113.192 128.552 112.696 129.288 111.912L128.296 110.888C127.8 111.4 126.792 111.784 125.928 111.784ZM125.88 105.944C127.304 105.944 128.088 106.872 128.264 108.152H123.304C123.56 106.808 124.6 105.944 125.88 105.944ZM138.004 101.816V106.152C137.364 105.144 136.34 104.536 135.06 104.536C132.884 104.536 131.252 106.328 131.252 108.856C131.252 111.4 132.884 113.192 135.06 113.192C136.34 113.192 137.364 112.584 138.004 111.56V113H139.572V101.816H138.004ZM135.444 111.816C133.924 111.816 132.852 110.584 132.852 108.856C132.852 107.128 133.924 105.912 135.444 105.912C136.932 105.912 138.004 107.128 138.004 108.856C138.004 110.584 136.932 111.816 135.444 111.816ZM155.551 112.52L153.759 110.68C154.319 109.896 154.815 108.984 155.279 107.976L154.015 107.4C153.695 108.248 153.295 109.032 152.831 109.704C151.935 108.776 151.247 108.008 150.591 107.256C152.223 106.552 153.215 105.88 153.215 104.504C153.215 103.048 152.031 101.88 150.463 101.88C148.783 101.88 147.551 103.048 147.551 104.52C147.551 105.336 147.807 106.024 148.431 106.888C146.735 107.64 145.967 108.632 145.967 110.056C145.967 112.008 147.487 113.192 149.503 113.192C150.831 113.192 151.903 112.664 152.815 111.784C153.215 112.2 153.663 112.664 154.159 113.16L155.551 112.52ZM150.463 103.144C151.215 103.144 151.743 103.752 151.743 104.52C151.743 105.368 151.183 105.8 149.823 106.344C149.279 105.64 149.023 105.08 149.023 104.52C149.023 103.672 149.647 103.144 150.463 103.144ZM149.631 111.88C148.495 111.88 147.535 111.176 147.535 109.992C147.535 109.08 148.127 108.392 149.183 107.848C149.871 108.68 150.687 109.576 151.903 110.84C151.215 111.48 150.447 111.88 149.631 111.88ZM165.775 113.192C167.007 113.192 168.079 112.68 168.879 111.864L167.807 110.888C167.295 111.464 166.559 111.816 165.791 111.816C164.271 111.816 163.023 110.472 163.023 108.856C163.023 107.256 164.271 105.912 165.775 105.912C166.543 105.912 167.263 106.248 167.759 106.808L168.831 105.816C168.047 105.032 166.975 104.536 165.791 104.536C163.423 104.536 161.423 106.504 161.423 108.856C161.423 111.208 163.423 113.192 165.775 113.192ZM170.574 113H172.142V101.816H170.574V113ZM178.241 111.784C176.817 111.784 175.809 110.792 175.601 109.416H182.113C182.113 106.456 180.657 104.536 178.129 104.536C175.841 104.536 174.001 106.36 174.001 108.84C174.001 111.384 175.953 113.192 178.257 113.192C179.425 113.192 180.865 112.696 181.601 111.912L180.609 110.888C180.113 111.4 179.105 111.784 178.241 111.784ZM178.193 105.944C179.617 105.944 180.401 106.872 180.577 108.152H175.617C175.873 106.808 176.913 105.944 178.193 105.944ZM187.421 104.536C186.509 104.536 185.469 104.776 184.285 105.368L184.861 106.536C185.581 106.168 186.381 105.848 187.197 105.848C188.845 105.848 189.325 106.952 189.325 107.992V108.248C188.525 107.976 187.645 107.8 186.829 107.8C185.005 107.8 183.517 108.904 183.517 110.552C183.517 112.168 184.813 113.192 186.573 113.192C187.581 113.192 188.717 112.728 189.325 111.864V113H190.877V107.992C190.877 105.944 189.645 104.536 187.421 104.536ZM186.877 111.944C185.837 111.944 185.037 111.4 185.037 110.504C185.037 109.608 185.965 108.984 187.069 108.984C187.885 108.984 188.653 109.096 189.325 109.304V110.408C189.053 111.432 187.901 111.944 186.877 111.944ZM197.376 104.536C196.256 104.536 195.248 105.112 194.752 105.928V104.728H193.168V113H194.752V107.64C194.88 106.664 195.872 105.912 197.024 105.912C198.144 105.912 198.928 106.776 198.928 108.008V113H200.48V107.736C200.48 105.864 199.2 104.536 197.376 104.536ZM205.738 113.192C207.546 113.192 208.874 112.2 208.874 110.632C208.874 108.984 207.418 108.536 206.058 108.136C204.666 107.704 204.154 107.512 204.154 106.872C204.154 106.248 204.794 105.896 205.61 105.896C206.33 105.896 207.162 106.168 207.962 106.664L208.666 105.496C207.77 104.904 206.682 104.536 205.61 104.536C203.85 104.536 202.586 105.528 202.602 107.048C202.602 108.392 203.546 108.936 205.45 109.464C206.474 109.752 207.322 109.992 207.322 110.76C207.322 111.4 206.682 111.832 205.754 111.832C204.778 111.832 203.834 111.464 202.954 110.824L202.202 111.96C203.194 112.76 204.522 113.192 205.738 113.192ZM214.507 111.784C213.083 111.784 212.075 110.792 211.867 109.416H218.378C218.378 106.456 216.923 104.536 214.395 104.536C212.107 104.536 210.267 106.36 210.267 108.84C210.267 111.384 212.219 113.192 214.523 113.192C215.691 113.192 217.131 112.696 217.867 111.912L216.875 110.888C216.379 111.4 215.371 111.784 214.507 111.784ZM214.459 105.944C215.883 105.944 216.667 106.872 216.843 108.152H211.883C212.139 106.808 213.179 105.944 214.459 105.944ZM226.583 101.816V106.152C225.943 105.144 224.919 104.536 223.639 104.536C221.463 104.536 219.831 106.328 219.831 108.856C219.831 111.4 221.463 113.192 223.639 113.192C224.919 113.192 225.943 112.584 226.583 111.56V113H228.151V101.816H226.583ZM224.023 111.816C222.503 111.816 221.431 110.584 221.431 108.856C221.431 107.128 222.503 105.912 224.023 105.912C225.511 105.912 226.583 107.128 226.583 108.856C226.583 110.584 225.511 111.816 224.023 111.816ZM241.473 101.816V106.152C240.833 105.144 239.809 104.536 238.529 104.536C236.353 104.536 234.721 106.328 234.721 108.856C234.721 111.4 236.353 113.192 238.529 113.192C239.809 113.192 240.833 112.584 241.473 111.56V113H243.041V101.816H241.473ZM238.913 111.816C237.393 111.816 236.321 110.584 236.321 108.856C236.321 107.128 237.393 105.912 238.913 105.912C240.401 105.912 241.473 107.128 241.473 108.856C241.473 110.584 240.401 111.816 238.913 111.816ZM248.89 104.536C247.978 104.536 246.938 104.776 245.754 105.368L246.33 106.536C247.05 106.168 247.85 105.848 248.666 105.848C250.314 105.848 250.794 106.952 250.794 107.992V108.248C249.994 107.976 249.114 107.8 248.298 107.8C246.474 107.8 244.986 108.904 244.986 110.552C244.986 112.168 246.282 113.192 248.042 113.192C249.05 113.192 250.186 112.728 250.794 111.864V113H252.346V107.992C252.346 105.944 251.114 104.536 248.89 104.536ZM248.346 111.944C247.306 111.944 246.506 111.4 246.506 110.504C246.506 109.608 247.434 108.984 248.538 108.984C249.354 108.984 250.122 109.096 250.794 109.304V110.408C250.522 111.432 249.37 111.944 248.346 111.944ZM258.508 111.512C258.332 111.688 258.012 111.816 257.66 111.816C257.196 111.816 256.812 111.4 256.812 110.824V106.072H258.764V104.728H256.812V102.456H255.26V104.728H254.012V106.072H255.26V110.936C255.26 112.264 256.156 113.192 257.436 113.192C258.028 113.192 258.636 112.968 259.084 112.6L258.508 111.512ZM264.171 104.536C263.259 104.536 262.219 104.776 261.035 105.368L261.611 106.536C262.331 106.168 263.131 105.848 263.947 105.848C265.595 105.848 266.075 106.952 266.075 107.992V108.248C265.275 107.976 264.395 107.8 263.579 107.8C261.755 107.8 260.267 108.904 260.267 110.552C260.267 112.168 261.563 113.192 263.323 113.192C264.331 113.192 265.467 112.728 266.075 111.864V113H267.627V107.992C267.627 105.944 266.395 104.536 264.171 104.536ZM263.627 111.944C262.587 111.944 261.787 111.4 261.787 110.504C261.787 109.608 262.715 108.984 263.819 108.984C264.635 108.984 265.403 109.096 266.075 109.304V110.408C265.803 111.432 264.651 111.944 263.627 111.944ZM278.368 111.512C278.192 111.688 277.872 111.816 277.52 111.816C277.056 111.816 276.672 111.4 276.672 110.824V106.072H278.624V104.728H276.672V102.456H275.12V104.728H273.872V106.072H275.12V110.936C275.12 112.264 276.016 113.192 277.296 113.192C277.888 113.192 278.496 112.968 278.944 112.6L278.368 111.512ZM284.766 104.536C283.63 104.536 282.622 105.128 282.126 105.96V101.816H280.558V113H282.126V107.864C282.126 106.792 283.166 105.912 284.414 105.912C285.534 105.912 286.318 106.776 286.318 108.008V113H287.87V107.736C287.87 105.864 286.59 104.536 284.766 104.536ZM293.608 104.536C292.696 104.536 291.656 104.776 290.472 105.368L291.048 106.536C291.768 106.168 292.568 105.848 293.384 105.848C295.032 105.848 295.512 106.952 295.512 107.992V108.248C294.712 107.976 293.832 107.8 293.016 107.8C291.192 107.8 289.704 108.904 289.704 110.552C289.704 112.168 291 113.192 292.76 113.192C293.768 113.192 294.904 112.728 295.512 111.864V113H297.064V107.992C297.064 105.944 295.832 104.536 293.608 104.536ZM293.064 111.944C292.024 111.944 291.224 111.4 291.224 110.504C291.224 109.608 292.152 108.984 293.256 108.984C294.072 108.984 294.84 109.096 295.512 109.304V110.408C295.24 111.432 294.088 111.944 293.064 111.944ZM303.227 111.512C303.051 111.688 302.731 111.816 302.379 111.816C301.915 111.816 301.531 111.4 301.531 110.824V106.072H303.483V104.728H301.531V102.456H299.979V104.728H298.731V106.072H299.979V110.936C299.979 112.264 300.875 113.192 302.155 113.192C302.747 113.192 303.355 112.968 303.803 112.6L303.227 111.512ZM27.0766 127.352C27.5886 127.352 28.0206 126.904 28.0206 126.392C28.0206 125.896 27.5886 125.448 27.0766 125.448C26.5326 125.448 26.1166 125.896 26.1166 126.392C26.1166 126.904 26.5326 127.352 27.0766 127.352ZM26.2766 137H27.8606V128.728H26.2766V137ZM33.144 137.192C34.952 137.192 36.28 136.2 36.28 134.632C36.28 132.984 34.824 132.536 33.464 132.136C32.072 131.704 31.56 131.512 31.56 130.872C31.56 130.248 32.2 129.896 33.016 129.896C33.736 129.896 34.568 130.168 35.368 130.664L36.072 129.496C35.176 128.904 34.088 128.536 33.016 128.536C31.256 128.536 29.992 129.528 30.008 131.048C30.008 132.392 30.952 132.936 32.856 133.464C33.88 133.752 34.728 133.992 34.728 134.76C34.728 135.4 34.088 135.832 33.16 135.832C32.184 135.832 31.24 135.464 30.36 134.824L29.608 135.96C30.6 136.76 31.928 137.192 33.144 137.192ZM44.3629 130.312V128.728H42.7789V137H44.3629V132.296C44.5069 130.856 45.7229 129.912 47.4349 129.912V128.536C46.0109 128.536 44.8909 129.224 44.3629 130.312ZM52.7721 135.784C51.3481 135.784 50.3401 134.792 50.1321 133.416H56.6441C56.6441 130.456 55.1881 128.536 52.6601 128.536C50.3721 128.536 48.5321 130.36 48.5321 132.84C48.5321 135.384 50.4841 137.192 52.7881 137.192C53.9561 137.192 55.3961 136.696 56.1321 135.912L55.1401 134.888C54.6441 135.4 53.6361 135.784 52.7721 135.784ZM52.7241 129.944C54.1481 129.944 54.9321 130.872 55.1081 132.152H50.1481C50.4041 130.808 51.4441 129.944 52.7241 129.944ZM61.9521 128.536C61.0401 128.536 60.0001 128.776 58.8161 129.368L59.3921 130.536C60.1121 130.168 60.9121 129.848 61.7281 129.848C63.3761 129.848 63.8561 130.952 63.8561 131.992V132.248C63.0561 131.976 62.1761 131.8 61.3601 131.8C59.5361 131.8 58.0481 132.904 58.0481 134.552C58.0481 136.168 59.3441 137.192 61.1041 137.192C62.1121 137.192 63.2481 136.728 63.8561 135.864V137H65.4081V131.992C65.4081 129.944 64.1761 128.536 61.9521 128.536ZM61.4081 135.944C60.3681 135.944 59.5681 135.4 59.5681 134.504C59.5681 133.608 60.4961 132.984 61.6001 132.984C62.4161 132.984 63.1841 133.096 63.8561 133.304V134.408C63.5841 135.432 62.4321 135.944 61.4081 135.944ZM74.0669 125.816V130.152C73.4269 129.144 72.4029 128.536 71.1229 128.536C68.9469 128.536 67.3149 130.328 67.3149 132.856C67.3149 135.4 68.9469 137.192 71.1229 137.192C72.4029 137.192 73.4269 136.584 74.0669 135.56V137H75.6349V125.816H74.0669ZM71.5069 135.816C69.9869 135.816 68.9149 134.584 68.9149 132.856C68.9149 131.128 69.9869 129.912 71.5069 129.912C72.9949 129.912 74.0669 131.128 74.0669 132.856C74.0669 134.584 72.9949 135.816 71.5069 135.816ZM79.4674 139.88C80.6514 139.864 81.5314 139.24 82.1234 137.752L85.7714 128.728H84.1234L81.6114 135.256L78.9554 128.728H77.2594L80.8114 137.048L80.3954 137.928C80.1234 138.408 79.7714 138.568 79.2594 138.568C78.9394 138.568 78.5714 138.488 78.2514 138.312L77.8994 139.528C78.3314 139.752 78.9074 139.88 79.4674 139.88ZM95.9928 135.512C95.8168 135.688 95.4968 135.816 95.1448 135.816C94.6808 135.816 94.2968 135.4 94.2968 134.824V130.072H96.2488V128.728H94.2968V126.456H92.7448V128.728H91.4967V130.072H92.7448V134.936C92.7448 136.264 93.6408 137.192 94.9208 137.192C95.5128 137.192 96.1208 136.968 96.5688 136.6L95.9928 135.512ZM102.103 137.192C104.455 137.192 106.439 135.208 106.439 132.856C106.439 130.504 104.455 128.536 102.103 128.536C99.7353 128.536 97.7353 130.504 97.7353 132.856C97.7353 135.208 99.7353 137.192 102.103 137.192ZM102.103 135.816C100.583 135.816 99.3193 134.472 99.3193 132.856C99.3193 131.256 100.583 129.912 102.103 129.912C103.591 129.912 104.855 131.256 104.855 132.856C104.855 134.472 103.591 135.816 102.103 135.816ZM117.463 128.536C116.183 128.536 115.159 129.144 114.519 130.152V125.816H112.951V137H114.519V135.56C115.159 136.584 116.183 137.192 117.463 137.192C119.639 137.192 121.271 135.4 121.271 132.856C121.271 130.328 119.639 128.536 117.463 128.536ZM117.079 135.816C115.591 135.816 114.519 134.584 114.519 132.856C114.519 131.128 115.591 129.912 117.079 129.912C118.599 129.912 119.671 131.128 119.671 132.856C119.671 134.584 118.599 135.816 117.079 135.816ZM126.975 135.784C125.551 135.784 124.543 134.792 124.335 133.416H130.847C130.847 130.456 129.391 128.536 126.863 128.536C124.575 128.536 122.735 130.36 122.735 132.84C122.735 135.384 124.687 137.192 126.991 137.192C128.159 137.192 129.599 136.696 130.335 135.912L129.343 134.888C128.847 135.4 127.839 135.784 126.975 135.784ZM126.927 129.944C128.351 129.944 129.135 130.872 129.311 132.152H124.351C124.607 130.808 125.647 129.944 126.927 129.944ZM140.733 128.536C139.821 128.536 138.781 128.776 137.597 129.368L138.173 130.536C138.893 130.168 139.693 129.848 140.509 129.848C142.157 129.848 142.637 130.952 142.637 131.992V132.248C141.837 131.976 140.957 131.8 140.141 131.8C138.317 131.8 136.829 132.904 136.829 134.552C136.829 136.168 138.125 137.192 139.885 137.192C140.893 137.192 142.029 136.728 142.637 135.864V137H144.189V131.992C144.189 129.944 142.957 128.536 140.733 128.536ZM140.189 135.944C139.149 135.944 138.349 135.4 138.349 134.504C138.349 133.608 139.277 132.984 140.381 132.984C141.197 132.984 141.965 133.096 142.637 133.304V134.408C142.365 135.432 141.213 135.944 140.189 135.944ZM150.688 128.536C149.568 128.536 148.56 129.112 148.064 129.928V128.728H146.48V137H148.064V131.64C148.192 130.664 149.184 129.912 150.336 129.912C151.456 129.912 152.24 130.776 152.24 132.008V137H153.792V131.736C153.792 129.864 152.512 128.536 150.688 128.536ZM159.53 128.536C158.618 128.536 157.578 128.776 156.394 129.368L156.97 130.536C157.69 130.168 158.49 129.848 159.306 129.848C160.954 129.848 161.434 130.952 161.434 131.992V132.248C160.634 131.976 159.754 131.8 158.938 131.8C157.114 131.8 155.626 132.904 155.626 134.552C155.626 136.168 156.922 137.192 158.682 137.192C159.69 137.192 160.826 136.728 161.434 135.864V137H162.986V131.992C162.986 129.944 161.754 128.536 159.53 128.536ZM158.986 135.944C157.946 135.944 157.146 135.4 157.146 134.504C157.146 133.608 158.074 132.984 159.178 132.984C159.994 132.984 160.762 133.096 161.434 133.304V134.408C161.162 135.432 160.01 135.944 158.986 135.944ZM165.277 137H166.845V125.816H165.277V137ZM170.608 139.88C171.792 139.864 172.672 139.24 173.264 137.752L176.912 128.728H175.264L172.752 135.256L170.096 128.728H168.4L171.952 137.048L171.536 137.928C171.264 138.408 170.912 138.568 170.4 138.568C170.08 138.568 169.712 138.488 169.392 138.312L169.04 139.528C169.472 139.752 170.048 139.88 170.608 139.88ZM178.331 137H185.083V135.576H180.411L185.051 129.912V128.728H178.427V130.152H182.971L178.331 135.816V137ZM190.788 135.784C189.364 135.784 188.356 134.792 188.148 133.416H194.66C194.66 130.456 193.204 128.536 190.676 128.536C188.388 128.536 186.548 130.36 186.548 132.84C186.548 135.384 188.5 137.192 190.804 137.192C191.972 137.192 193.412 136.696 194.148 135.912L193.156 134.888C192.66 135.4 191.652 135.784 190.788 135.784ZM190.74 129.944C192.164 129.944 192.948 130.872 193.124 132.152H188.164C188.42 130.808 189.46 129.944 190.74 129.944ZM202.864 125.816V130.152C202.224 129.144 201.2 128.536 199.92 128.536C197.744 128.536 196.112 130.328 196.112 132.856C196.112 135.4 197.744 137.192 199.92 137.192C201.2 137.192 202.224 136.584 202.864 135.56V137H204.432V125.816H202.864ZM200.304 135.816C198.784 135.816 197.712 134.584 197.712 132.856C197.712 131.128 198.784 129.912 200.304 129.912C201.792 129.912 202.864 131.128 202.864 132.856C202.864 134.584 201.792 135.816 200.304 135.816ZM215.258 135.512C215.082 135.688 214.762 135.816 214.41 135.816C213.946 135.816 213.562 135.4 213.562 134.824V130.072H215.514V128.728H213.562V126.456H212.01V128.728H210.762V130.072H212.01V134.936C212.01 136.264 212.906 137.192 214.186 137.192C214.778 137.192 215.386 136.968 215.834 136.6L215.258 135.512ZM221.369 137.192C223.721 137.192 225.705 135.208 225.705 132.856C225.705 130.504 223.721 128.536 221.369 128.536C219.001 128.536 217.001 130.504 217.001 132.856C217.001 135.208 219.001 137.192 221.369 137.192ZM221.369 135.816C219.849 135.816 218.585 134.472 218.585 132.856C218.585 131.256 219.849 129.912 221.369 129.912C222.857 129.912 224.121 131.256 224.121 132.856C224.121 134.472 222.857 135.816 221.369 135.816ZM238.424 128.728V130.056C237.8 129.128 236.744 128.536 235.496 128.536C233.32 128.536 231.736 130.152 231.736 132.456C231.736 134.76 233.32 136.392 235.496 136.392C236.744 136.392 237.768 135.832 238.424 134.888V136.088C238.424 137.528 237.352 138.376 235.576 138.376C234.584 138.376 233.592 138.04 232.984 137.464L232.36 138.648C233.144 139.288 234.424 139.752 235.816 139.752C238.264 139.752 240.008 138.248 240.008 136.12V128.728H238.424ZM235.896 135.016C234.424 135.016 233.384 133.96 233.384 132.456C233.384 130.968 234.424 129.912 235.896 129.912C237.368 129.912 238.424 130.968 238.424 132.456C238.424 133.96 237.368 135.016 235.896 135.016ZM245.843 128.536C244.931 128.536 243.891 128.776 242.707 129.368L243.283 130.536C244.003 130.168 244.803 129.848 245.619 129.848C247.267 129.848 247.747 130.952 247.747 131.992V132.248C246.947 131.976 246.067 131.8 245.251 131.8C243.427 131.8 241.939 132.904 241.939 134.552C241.939 136.168 243.235 137.192 244.995 137.192C246.003 137.192 247.139 136.728 247.747 135.864V137H249.299V131.992C249.299 129.944 248.067 128.536 245.843 128.536ZM245.299 135.944C244.259 135.944 243.459 135.4 243.459 134.504C243.459 133.608 244.387 132.984 245.491 132.984C246.307 132.984 247.075 133.096 247.747 133.304V134.408C247.475 135.432 246.323 135.944 245.299 135.944ZM255.462 135.512C255.286 135.688 254.966 135.816 254.614 135.816C254.15 135.816 253.766 135.4 253.766 134.824V130.072H255.718V128.728H253.766V126.456H252.214V128.728H250.965V130.072H252.214V134.936C252.214 136.264 253.11 137.192 254.39 137.192C254.982 137.192 255.59 136.968 256.038 136.6L255.462 135.512ZM261.86 128.536C260.724 128.536 259.716 129.128 259.22 129.96V125.816H257.652V137H259.22V131.864C259.22 130.792 260.26 129.912 261.508 129.912C262.628 129.912 263.412 130.776 263.412 132.008V137H264.964V131.736C264.964 129.864 263.684 128.536 261.86 128.536ZM271.022 135.784C269.598 135.784 268.59 134.792 268.382 133.416H274.894C274.894 130.456 273.438 128.536 270.91 128.536C268.622 128.536 266.782 130.36 266.782 132.84C266.782 135.384 268.734 137.192 271.038 137.192C272.206 137.192 273.646 136.696 274.382 135.912L273.39 134.888C272.894 135.4 271.886 135.784 271.022 135.784ZM270.974 129.944C272.398 129.944 273.182 130.872 273.358 132.152H268.398C268.654 130.808 269.694 129.944 270.974 129.944ZM278.394 130.312V128.728H276.81V137H278.394V132.296C278.538 130.856 279.754 129.912 281.466 129.912V128.536C280.042 128.536 278.922 129.224 278.394 130.312ZM55.6853 161H57.1733L60.6613 152.728H58.9493L56.4213 159.16L53.8453 152.728H52.1333L55.6853 161ZM65.0303 152.536C64.1183 152.536 63.0783 152.776 61.8943 153.368L62.4703 154.536C63.1903 154.168 63.9903 153.848 64.8063 153.848C66.4543 153.848 66.9343 154.952 66.9343 155.992V156.248C66.1343 155.976 65.2543 155.8 64.4383 155.8C62.6143 155.8 61.1263 156.904 61.1263 158.552C61.1263 160.168 62.4223 161.192 64.1823 161.192C65.1903 161.192 66.3263 160.728 66.9343 159.864V161H68.4862V155.992C68.4862 153.944 67.2543 152.536 65.0303 152.536ZM64.4863 159.944C63.4463 159.944 62.6463 159.4 62.6463 158.504C62.6463 157.608 63.5743 156.984 64.6783 156.984C65.4943 156.984 66.2623 157.096 66.9343 157.304V158.408C66.6623 159.432 65.5103 159.944 64.4863 159.944ZM70.777 161H72.345V149.816H70.777V161ZM80.348 152.728V158.088C80.22 159.064 79.228 159.816 78.076 159.816C76.956 159.816 76.172 158.952 76.172 157.72V152.728H74.62V157.992C74.62 159.864 75.9 161.192 77.724 161.192C78.844 161.192 79.852 160.616 80.348 159.8V161H81.932V152.728H80.348ZM87.7021 152.536C86.7901 152.536 85.7501 152.776 84.5661 153.368L85.1421 154.536C85.8621 154.168 86.6621 153.848 87.4781 153.848C89.1261 153.848 89.6061 154.952 89.6061 155.992V156.248C88.8061 155.976 87.9261 155.8 87.1101 155.8C85.2861 155.8 83.7981 156.904 83.7981 158.552C83.7981 160.168 85.0941 161.192 86.8541 161.192C87.8621 161.192 88.9981 160.728 89.6061 159.864V161H91.1581V155.992C91.1581 153.944 89.9261 152.536 87.7021 152.536ZM87.1581 159.944C86.1181 159.944 85.3181 159.4 85.3181 158.504C85.3181 157.608 86.2461 156.984 87.3501 156.984C88.1661 156.984 88.9341 157.096 89.6061 157.304V158.408C89.3341 159.432 88.1821 159.944 87.1581 159.944ZM98.0409 152.536C96.7609 152.536 95.7369 153.144 95.0969 154.152V149.816H93.5289V161H95.0969V159.56C95.7369 160.584 96.7609 161.192 98.0409 161.192C100.217 161.192 101.849 159.4 101.849 156.856C101.849 154.328 100.217 152.536 98.0409 152.536ZM97.6569 159.816C96.1689 159.816 95.0969 158.584 95.0969 156.856C95.0969 155.128 96.1689 153.912 97.6569 153.912C99.1769 153.912 100.249 155.128 100.249 156.856C100.249 158.584 99.1769 159.816 97.6569 159.816ZM103.761 161H105.329V149.816H103.761V161ZM111.428 159.784C110.004 159.784 108.996 158.792 108.788 157.416H115.3C115.3 154.456 113.844 152.536 111.316 152.536C109.028 152.536 107.188 154.36 107.188 156.84C107.188 159.384 109.14 161.192 111.444 161.192C112.612 161.192 114.052 160.696 114.788 159.912L113.796 158.888C113.3 159.4 112.292 159.784 111.428 159.784ZM111.38 153.944C112.804 153.944 113.588 154.872 113.764 156.152H108.804C109.06 154.808 110.1 153.944 111.38 153.944ZM126.307 152.536C125.027 152.536 124.003 153.144 123.363 154.152V149.816H121.795V161H123.363V159.56C124.003 160.584 125.027 161.192 126.307 161.192C128.483 161.192 130.115 159.4 130.115 156.856C130.115 154.328 128.483 152.536 126.307 152.536ZM125.923 159.816C124.435 159.816 123.363 158.584 123.363 156.856C123.363 155.128 124.435 153.912 125.923 153.912C127.443 153.912 128.515 155.128 128.515 156.856C128.515 158.584 127.443 159.816 125.923 159.816ZM137.723 152.728V158.088C137.595 159.064 136.603 159.816 135.451 159.816C134.331 159.816 133.547 158.952 133.547 157.72V152.728H131.995V157.992C131.995 159.864 133.275 161.192 135.099 161.192C136.219 161.192 137.227 160.616 137.723 159.8V161H139.307V152.728H137.723ZM144.597 161.192C146.405 161.192 147.733 160.2 147.733 158.632C147.733 156.984 146.277 156.536 144.917 156.136C143.525 155.704 143.013 155.512 143.013 154.872C143.013 154.248 143.653 153.896 144.469 153.896C145.189 153.896 146.021 154.168 146.821 154.664L147.525 153.496C146.629 152.904 145.541 152.536 144.469 152.536C142.709 152.536 141.445 153.528 141.461 155.048C141.461 156.392 142.405 156.936 144.309 157.464C145.333 157.752 146.181 157.992 146.181 158.76C146.181 159.4 145.541 159.832 144.613 159.832C143.637 159.832 142.693 159.464 141.813 158.824L141.061 159.96C142.053 160.76 143.381 161.192 144.597 161.192ZM150.358 151.352C150.87 151.352 151.302 150.904 151.302 150.392C151.302 149.896 150.87 149.448 150.358 149.448C149.814 149.448 149.398 149.896 149.398 150.392C149.398 150.904 149.814 151.352 150.358 151.352ZM149.558 161H151.142V152.728H149.558V161ZM157.641 152.536C156.521 152.536 155.513 153.112 155.017 153.928V152.728H153.433V161H155.017V155.64C155.145 154.664 156.137 153.912 157.289 153.912C158.409 153.912 159.193 154.776 159.193 156.008V161H160.745V155.736C160.745 153.864 159.465 152.536 157.641 152.536ZM166.803 159.784C165.379 159.784 164.371 158.792 164.163 157.416H170.675C170.675 154.456 169.219 152.536 166.691 152.536C164.403 152.536 162.563 154.36 162.563 156.84C162.563 159.384 164.515 161.192 166.819 161.192C167.987 161.192 169.427 160.696 170.163 159.912L169.171 158.888C168.675 159.4 167.667 159.784 166.803 159.784ZM166.755 153.944C168.179 153.944 168.963 154.872 169.139 156.152H164.179C164.435 154.808 165.475 153.944 166.755 153.944ZM175.503 161.192C177.311 161.192 178.639 160.2 178.639 158.632C178.639 156.984 177.183 156.536 175.823 156.136C174.431 155.704 173.919 155.512 173.919 154.872C173.919 154.248 174.559 153.896 175.375 153.896C176.095 153.896 176.927 154.168 177.727 154.664L178.431 153.496C177.535 152.904 176.447 152.536 175.375 152.536C173.615 152.536 172.351 153.528 172.367 155.048C172.367 156.392 173.311 156.936 175.215 157.464C176.239 157.752 177.087 157.992 177.087 158.76C177.087 159.4 176.447 159.832 175.519 159.832C174.543 159.832 173.599 159.464 172.719 158.824L171.967 159.96C172.959 160.76 174.287 161.192 175.503 161.192ZM183.472 161.192C185.28 161.192 186.608 160.2 186.608 158.632C186.608 156.984 185.152 156.536 183.792 156.136C182.4 155.704 181.888 155.512 181.888 154.872C181.888 154.248 182.528 153.896 183.344 153.896C184.064 153.896 184.896 154.168 185.696 154.664L186.4 153.496C185.504 152.904 184.416 152.536 183.344 152.536C181.584 152.536 180.32 153.528 180.336 155.048C180.336 156.392 181.28 156.936 183.184 157.464C184.208 157.752 185.056 157.992 185.056 158.76C185.056 159.4 184.416 159.832 183.488 159.832C182.512 159.832 181.568 159.464 180.688 158.824L179.936 159.96C180.928 160.76 182.256 161.192 183.472 161.192ZM193.811 151.352C194.323 151.352 194.755 150.904 194.755 150.392C194.755 149.896 194.323 149.448 193.811 149.448C193.267 149.448 192.851 149.896 192.851 150.392C192.851 150.904 193.267 151.352 193.811 151.352ZM193.011 161H194.595V152.728H193.011V161ZM201.094 152.536C199.974 152.536 198.966 153.112 198.47 153.928V152.728H196.886V161H198.47V155.64C198.598 154.664 199.59 153.912 200.742 153.912C201.862 153.912 202.646 154.776 202.646 156.008V161H204.198V155.736C204.198 153.864 202.918 152.536 201.094 152.536ZM209.457 161.192C211.265 161.192 212.593 160.2 212.593 158.632C212.593 156.984 211.137 156.536 209.777 156.136C208.385 155.704 207.873 155.512 207.873 154.872C207.873 154.248 208.513 153.896 209.329 153.896C210.049 153.896 210.881 154.168 211.681 154.664L212.385 153.496C211.489 152.904 210.401 152.536 209.329 152.536C207.569 152.536 206.305 153.528 206.321 155.048C206.321 156.392 207.265 156.936 209.169 157.464C210.193 157.752 211.041 157.992 211.041 158.76C211.041 159.4 210.401 159.832 209.473 159.832C208.497 159.832 207.553 159.464 206.673 158.824L205.921 159.96C206.913 160.76 208.241 161.192 209.457 161.192ZM215.217 151.352C215.729 151.352 216.161 150.904 216.161 150.392C216.161 149.896 215.729 149.448 215.217 149.448C214.673 149.448 214.257 149.896 214.257 150.392C214.257 150.904 214.673 151.352 215.217 151.352ZM214.417 161H216.001V152.728H214.417V161ZM224.581 152.728V154.056C223.957 153.128 222.901 152.536 221.653 152.536C219.477 152.536 217.893 154.152 217.893 156.456C217.893 158.76 219.477 160.392 221.653 160.392C222.901 160.392 223.925 159.832 224.581 158.888V160.088C224.581 161.528 223.509 162.376 221.733 162.376C220.741 162.376 219.749 162.04 219.141 161.464L218.517 162.648C219.301 163.288 220.581 163.752 221.973 163.752C224.421 163.752 226.165 162.248 226.165 160.12V152.728H224.581ZM222.053 159.016C220.581 159.016 219.541 157.96 219.541 156.456C219.541 154.968 220.581 153.912 222.053 153.912C223.525 153.912 224.581 154.968 224.581 156.456C224.581 157.96 223.525 159.016 222.053 159.016ZM232.735 152.536C231.599 152.536 230.591 153.128 230.095 153.96V149.816H228.527V161H230.095V155.864C230.095 154.792 231.135 153.912 232.383 153.912C233.503 153.912 234.287 154.776 234.287 156.008V161H235.839V155.736C235.839 153.864 234.559 152.536 232.735 152.536ZM241.977 159.512C241.801 159.688 241.481 159.816 241.129 159.816C240.665 159.816 240.281 159.4 240.281 158.824V154.072H242.233V152.728H240.281V150.456H238.729V152.728H237.481V154.072H238.729V158.936C238.729 160.264 239.625 161.192 240.905 161.192C241.497 161.192 242.105 160.968 242.553 160.6L241.977 159.512ZM247.16 161.192C248.968 161.192 250.296 160.2 250.296 158.632C250.296 156.984 248.84 156.536 247.48 156.136C246.088 155.704 245.576 155.512 245.576 154.872C245.576 154.248 246.216 153.896 247.032 153.896C247.752 153.896 248.584 154.168 249.384 154.664L250.088 153.496C249.192 152.904 248.104 152.536 247.032 152.536C245.272 152.536 244.008 153.528 244.024 155.048C244.024 156.392 244.968 156.936 246.872 157.464C247.896 157.752 248.744 157.992 248.744 158.76C248.744 159.4 248.104 159.832 247.176 159.832C246.2 159.832 245.256 159.464 244.376 158.824L243.624 159.96C244.616 160.76 245.944 161.192 247.16 161.192ZM253.128 161.192C253.704 161.192 254.168 160.696 254.168 160.104C254.168 159.56 253.704 159.064 253.128 159.064C252.52 159.064 252.056 159.56 252.056 160.104C252.056 160.696 252.52 161.192 253.128 161.192Z" fill="#8989A2"/>
</svg>


